<?xml version="1.0" standalone="no"?>
<!DOCTYPE svg PUBLIC "-//W3C//DTD SVG 1.1//EN" "http://www.w3.org/Graphics/SVG/1.1/DTD/svg11.dtd" >
<svg xmlns="http://www.w3.org/2000/svg" xmlns:xlink="http://www.w3.org/1999/xlink" version="1.1">
<metadata>
Created by FontForge 20170731 at Tue Oct  8 13:51:49 2013
 By Aleksey,,,
(c) 2013 by Sergiy S. Tkachenko / 4th february (info@4thfebruary.com.ua).
All rights reserved. This font software is the property of Sergiy S. Tkachenko (Kremenchuk, Ukraine). You may not reproduce, modify, adapt, translate, alter nor create derivative works of the font software. You may not reverse engineer, decompile, decrypt, disassemble, nor seek to discover the source code of the font software.
</metadata>
<defs>
<font id="EsqaderoFFCY4F" horiz-adv-x="700" >
  <font-face 
    font-family="Esqadero FF CY 4F"
    font-weight="400"
    font-stretch="expanded"
    units-per-em="1000"
    panose-1="2 1 5 5 4 2 2 4 1 4"
    ascent="770"
    descent="-230"
    x-height="564"
    cap-height="713"
    bbox="-46 -290 1195 940"
    underline-thickness="50"
    underline-position="-150"
    unicode-range="U+0020-F442"
  />
<missing-glyph horiz-adv-x="194" 
 />
    <glyph glyph-name=".notdef" horiz-adv-x="194" 
 />
    <glyph glyph-name=".null" horiz-adv-x="0" 
 />
    <glyph glyph-name="nonmarkingreturn" horiz-adv-x="333" 
 />
    <glyph glyph-name="space" unicode=" " horiz-adv-x="258" 
 />
    <glyph glyph-name="exclam" unicode="!" horiz-adv-x="240" 
d="M163 120v-120h-87v120h87zM91 206l-7 507h70l-7 -507h-56z" />
    <glyph glyph-name="quotedbl" unicode="&#x22;" horiz-adv-x="352" 
d="M83 550l-7 221h72l-9 -221h-56zM211 550l-7 221h71l-7 -221h-57z" />
    <glyph glyph-name="dollar" unicode="$" horiz-adv-x="778" 
d="M347 -143v130q-62 2 -131 7t-138 14l7 69q68 -12 136.5 -17t125.5 -6v274q-55 10 -102.5 22t-82.5 34t-55 56.5t-20 88.5q0 56 21 92.5t57 59t83 32.5t99 13v130h71v-129q57 -2 122 -8t129 -14l-6 -69q-63 11 -127 16t-118 6v-272q61 -11 112.5 -24t89 -35t59 -56
t21.5 -87q0 -59 -25 -97t-65.5 -59.5t-91 -30.5t-100.5 -10v-130h-71zM629 184q0 35 -16 57.5t-44 36.5t-66.5 22.5t-84.5 15.5v-262q37 1 74.5 7t68 20t49.5 39t19 64zM158 527q0 -33 12.5 -54.5t36.5 -36t59.5 -23t80.5 -16.5v260q-36 -2 -70.5 -8t-60.5 -20.5t-42 -38.5
t-16 -63z" />
    <glyph glyph-name="percent" unicode="%" 
d="M521 714h83l-414 -714h-83zM179 372q-30 0 -56 10t-45.5 31t-30.5 54t-11 80q0 46 11 79.5t30.5 55t45.5 31.5t56 10q29 0 54.5 -10t45 -31.5t30.5 -55t11 -79.5q0 -47 -11 -80t-30 -54t-45 -31t-55 -10zM179 442q29 0 49 24.5t20 80.5t-20.5 81t-48.5 25q-29 0 -50 -25
t-21 -81t21 -80.5t50 -24.5zM524 -10q-30 0 -56 10t-45.5 31t-30.5 54t-11 80q0 46 11 79.5t30.5 55t45.5 31.5t56 10q29 0 55 -10t45 -31.5t30 -55t11 -79.5q0 -47 -11 -80t-30.5 -54t-45 -31t-54.5 -10zM524 60q28 0 48.5 24.5t20.5 80.5t-20 81t-49 25t-50 -25t-21 -81
t21 -80.5t50 -24.5z" />
    <glyph glyph-name="ampersand" unicode="&#x26;" horiz-adv-x="798" 
d="M766 0l-88 -4l-77 69q-38 -36 -97 -57.5t-145 -21.5q-60 0 -114.5 11.5t-96 35.5t-66 61.5t-24.5 89.5q0 40 14.5 71t39.5 55.5t57 44t68 36.5l-59 54q-18 17 -33.5 44.5t-15.5 73.5q0 42 16.5 72.5t46.5 51t71.5 30.5t91.5 10q20 0 47 -1.5t57.5 -4.5t62 -7t61.5 -9
l-5 -70q-24 6 -55.5 10.5t-62.5 7.5t-58 4t-43 1q-77 0 -117.5 -23t-40.5 -70q0 -21 6 -37.5t14.5 -29.5t17.5 -21.5t14 -12.5l337 -301q15 29 21 62.5t6 70.5l65 -8q0 -47 -9.5 -90t-31.5 -81l126 -112zM354 55q70 0 117.5 15t77.5 41l-260 234h-1q-33 -17 -62.5 -33.5
t-51 -35.5t-34.5 -42t-13 -51q0 -35 18.5 -59t49.5 -39.5t72.5 -22.5t86.5 -7z" />
    <glyph glyph-name="quotesingle" unicode="'" horiz-adv-x="225" 
d="M84 550l-8 221h72l-8 -221h-56z" />
    <glyph glyph-name="parenleft" unicode="(" horiz-adv-x="344" 
d="M84 277q0 112 6.5 193.5t18 137.5t27.5 90t34.5 53t39 25t41.5 6q8 0 20 -0.5t24 -2.5l-6 -68q-9 1 -17 1.5t-15 0.5q-13 0 -25.5 -4.5t-24 -19.5t-21 -43.5t-16.5 -77t-11 -119.5t-4 -171q0 -150 8.5 -237.5t23 -132t32.5 -56.5t38 -12q7 0 15.5 0.5t16.5 1.5l6 -68
q-26 -3 -44 -3q-21 0 -41.5 6t-39 25t-34.5 53.5t-27.5 90.5t-18 137t-6.5 194z" />
    <glyph glyph-name="parenright" unicode=")" horiz-adv-x="344" 
d="M260 277q0 -112 -6.5 -193.5t-18 -137.5t-27.5 -90.5t-34.5 -53.5t-39 -25t-41.5 -6q-8 0 -20 0.5t-24 2.5l6 68q8 -1 16.5 -1.5t15.5 -0.5q19 0 37.5 12t33 56.5t23 132t8.5 237.5q0 100 -4 171t-11 119.5t-16.5 77t-21 43.5t-24 19.5t-25.5 4.5q-7 0 -15.5 -0.5
t-16.5 -1.5l-6 68q12 2 24 2.5t20 0.5q21 0 41.5 -6t39 -25t34.5 -53t27.5 -90t18 -137.5t6.5 -193.5z" />
    <glyph glyph-name="asterisk" unicode="*" horiz-adv-x="566" 
d="M383 297l-101 140l-107 -135l-47 38l105 132l-159 52l16 57l163 -52v171h59v-171l164 52l16 -57l-163 -52l103 -137z" />
    <glyph glyph-name="plus" unicode="+" 
d="M315 40v281h-281v70h281v282h72v-282h280v-70h-280v-281h-72z" />
    <glyph glyph-name="comma" unicode="," horiz-adv-x="272" 
d="M54 -180q16 34 28.5 69.5t21.5 68.5t13.5 62t4.5 51h72q0 -26 -5 -59t-14.5 -69.5t-23 -75.5t-29.5 -76z" />
    <glyph glyph-name="hyphen" unicode="-" horiz-adv-x="546" 
d="M78 302v68h390v-68h-390z" />
    <glyph glyph-name="period" unicode="." horiz-adv-x="243" 
d="M165 85v-85h-87v85h87z" />
    <glyph glyph-name="slash" unicode="/" horiz-adv-x="454" 
d="M324 782h72l-266 -1002h-72z" />
    <glyph glyph-name="zero" unicode="0" 
d="M352 -14q-69 0 -127 21t-100 66t-65.5 115t-23.5 168t23.5 168.5t65.5 115.5t100 66t127 21q68 0 125.5 -21t99 -66t64.5 -115.5t23 -168.5t-23 -168t-64.5 -115t-99 -66t-125.5 -21zM352 54q53 0 97.5 17t76 54t49 94t17.5 137t-17.5 137.5t-49 94t-76 53.5t-97.5 17
q-54 0 -99 -17t-77.5 -53.5t-50 -94t-17.5 -137.5t17.5 -137t50 -94t77.5 -54t99 -17z" />
    <glyph glyph-name="one" unicode="1" 
d="M151 701l239 12v-643h197l-6 -70h-468v70h206v569l-173 -8z" />
    <glyph glyph-name="two" unicode="2" 
d="M38 52l368 245q16 11 41 30t47.5 46t39 61t16.5 76q0 69 -54 108.5t-174 39.5q-25 0 -55.5 -2t-63.5 -5t-67 -7t-67 -8l-6 69q36 5 73 9t72 7t66.5 4.5t55.5 1.5q73 0 127.5 -15t91 -43t54.5 -66.5t18 -86.5q0 -56 -21.5 -102t-49 -79.5t-55 -55t-39.5 -29.5l-283 -189
l133 8h348l-6 -69h-604z" />
    <glyph glyph-name="three" unicode="3" 
d="M330 54q43 0 87.5 8t81 26.5t59.5 49t23 74.5q0 43 -22.5 70t-57.5 42.5t-78.5 21t-86.5 5.5h-84v69l241 223h-436v70h544v-55l-253 -238q55 -1 109.5 -11t98 -34t70 -63.5t26.5 -99.5q0 -62 -27.5 -105t-72.5 -70t-101 -39t-113 -12q-63 0 -138.5 5.5t-151.5 16.5l6 69
q36 -7 74 -11.5t74 -7t68.5 -3.5t59.5 -1z" />
    <glyph glyph-name="four" unicode="4" 
d="M515 228v332l70 4v-336h116l-6 -69h-110v-159h-70v159h-497v69l380 485h87l-382 -485h412z" />
    <glyph glyph-name="five" unicode="5" 
d="M319 54q130 0 198 48t68 129q0 42 -17.5 68.5t-47 40.5t-67.5 19t-78 5q-19 0 -46 -1t-58 -3.5t-63.5 -7t-62.5 -10.5h-72l18 371h536l-4 -70h-464l-11 -233q68 13 130.5 18t103.5 5q54 0 103.5 -8t87.5 -30.5t60.5 -61.5t22.5 -101q0 -68 -27.5 -115t-73.5 -76t-106 -42
t-125 -13q-21 0 -52.5 1.5t-67.5 4.5t-74.5 7t-75.5 9l5 69q39 -7 79 -11.5t75 -7t63 -3.5t43 -1z" />
    <glyph glyph-name="six" unicode="6" 
d="M367 659q-50 0 -93.5 -12.5t-76 -42.5t-53 -80.5t-24.5 -126.5q65 11 130.5 17t111.5 6q61 0 116 -9t96 -32.5t65 -64.5t24 -105q0 -49 -16.5 -90t-52 -70.5t-92 -46t-136.5 -16.5q-74 0 -133 19.5t-100.5 63.5t-63.5 114.5t-22 171.5q0 106 24 177.5t66 115t99.5 61.5
t123.5 18q24 0 55 -1.5t66 -4.5t72.5 -7t73.5 -9l-6 -69q-35 7 -72 11.5t-71.5 7t-63 3.5t-47.5 1zM363 351q-46 0 -112.5 -5.5t-131.5 -17.5q5 -145 69.5 -209t181.5 -64q69 0 112 13.5t67 35t33 48.5t9 54q0 45 -19 73.5t-50.5 44.5t-72.5 21.5t-86 5.5z" />
    <glyph glyph-name="seven" unicode="7" 
d="M288 0h-74l366 643h-537v70h613v-70z" />
    <glyph glyph-name="eight" unicode="8" 
d="M38 184q0 32 10 59t28 49t42 40.5t53 33.5q-51 22 -80 57.5t-29 97.5q0 55 24 94.5t64 64t91.5 36t106.5 11.5t107.5 -11.5t92.5 -35.5t64.5 -61.5t24.5 -89.5q0 -31 -9 -55t-25.5 -44t-39.5 -38.5t-51 -37.5q69 -22 109 -59t40 -104q0 -56 -29 -95t-74.5 -64t-101.5 -36
t-111 -11q-57 0 -112.5 11.5t-98.5 36t-69.5 62t-26.5 89.5zM349 321q-31 5 -59.5 11t-54.5 13q-24 -14 -47 -30.5t-41 -36.5t-28.5 -43t-10.5 -49q0 -36 21.5 -61t55.5 -40.5t76 -23t84 -7.5q41 0 84.5 7.5t79 23.5t58.5 42t23 64q0 33 -19 54.5t-51.5 35.5t-76.5 23
t-94 17zM349 391q26 -5 49.5 -9.5t46.5 -9.5q19 14 40.5 29.5t39.5 34t29.5 41t11.5 51.5q0 34 -18.5 58.5t-49 40.5t-69.5 24t-80 8q-39 0 -77.5 -7.5t-68.5 -24t-48.5 -42.5t-18.5 -64q0 -37 17.5 -59.5t47 -35.5t68 -20.5t80.5 -14.5z" />
    <glyph glyph-name="nine" unicode="9" 
d="M333 54q50 0 93.5 12.5t76 42.5t52.5 80t25 126q-33 -6 -66.5 -10t-65 -6.5t-60 -4t-50.5 -1.5q-62 0 -116.5 9t-95.5 32.5t-65 64.5t-24 105q0 49 16.5 90t52 70.5t92 46t136.5 16.5q74 0 133 -19.5t100.5 -63.5t63.5 -114.5t22 -171.5q0 -107 -24 -178t-66 -114.5
t-99.5 -61.5t-123.5 -18q-24 0 -55 1.5t-66 4.5t-72.5 7t-73.5 9l6 69q35 -7 72 -11.5t71.5 -7t63 -3.5t47.5 -1zM337 362q22 0 51 1t61 4t65.5 7t65.5 10q-5 145 -69 209.5t-181 64.5q-69 0 -112 -13.5t-67 -35t-33 -48.5t-9 -54q0 -45 18.5 -73.5t50 -44.5t73 -21.5
t86.5 -5.5z" />
    <glyph glyph-name="colon" unicode=":" horiz-adv-x="243" 
d="M165 85v-85h-87v85h87zM165 370v-85h-87v85h87z" />
    <glyph glyph-name="semicolon" unicode=";" horiz-adv-x="243" 
d="M22 -180q16 34 28.5 69.5t21.5 68.5t13.5 62t4.5 51h72q0 -26 -5 -59t-14.5 -69.5t-23 -75.5t-29.5 -76zM165 370v-85h-87v85h87z" />
    <glyph glyph-name="less" unicode="&#x3c;" 
d="M627 115v-78l-564 288v60l564 286v-78l-479 -238z" />
    <glyph glyph-name="equal" unicode="=" 
d="M72 422v68h556v-68h-556zM72 222v68h556v-68h-556z" />
    <glyph glyph-name="greater" unicode="&#x3e;" 
d="M542 355l-479 238v78l564 -286v-60l-564 -288v78z" />
    <glyph glyph-name="question" unicode="?" horiz-adv-x="735" 
d="M330 206l-7 179v1l34 5q55 9 98 17.5t71.5 22.5t43.5 36.5t15 59.5q0 45 -21 71t-54.5 39.5t-75.5 17t-84 3.5q-55 0 -126.5 -4.5t-143.5 -17.5l-5 69q72 10 145 16t133 6q58 0 113 -7.5t97.5 -29.5t68 -60.5t25.5 -100.5q0 -55 -20.5 -89.5t-56 -56.5t-84 -34
t-105.5 -22l-5 -121h-56zM402 120v-120h-87v120h87z" />
    <glyph glyph-name="at" unicode="@" horiz-adv-x="910" 
d="M835 -100q-83 -11 -163 -16.5t-140 -5.5q-90 0 -172.5 15t-146 55.5t-101.5 113t-38 188.5q0 84 20 143.5t53 99t75.5 63t87.5 35t88.5 15t79.5 3.5q72 0 124 -8.5t85 -28t48.5 -51.5t15.5 -79v-231q0 -16 2 -31t7.5 -26t15.5 -18t27 -7q10 0 12 1t2 2l4 -69
q-6 -1 -10.5 -1h-9.5q-51 0 -78 21.5t-38 54.5q-64 -82 -215 -82q-111 0 -168 43.5t-57 130.5q0 69 35.5 98.5t102.5 34.5l293 22v58q0 48 -36 72.5t-113 24.5q-42 0 -87 -1.5t-87.5 -9.5t-80 -25t-66 -48.5t-45 -80t-16.5 -119.5q0 -98 31.5 -158.5t85.5 -94.5t125 -45.5
t151 -11.5q22 0 55.5 1t72.5 3.5t81 7t82 11.5zM676 315l-292 -18q-40 -3 -52.5 -21.5t-12.5 -43.5q0 -53 38.5 -80.5t116.5 -27.5q33 0 66 5.5t61 20t48 38.5t27 61v66z" />
    <glyph glyph-name="A" unicode="A" horiz-adv-x="907" 
d="M685 165h-463l-84 -165h-80l366 713h60l366 -713h-80zM254 228h399l-199 391z" />
    <glyph glyph-name="B" unicode="B" horiz-adv-x="824" 
d="M88 713q43 3 88 5t86 3.5t77 2.5t62 1q64 0 121.5 -7t100.5 -28t68 -60t25 -103q0 -65 -27 -102t-79 -56q67 -19 101.5 -59t34.5 -113q0 -68 -27.5 -109t-74 -63.5t-108 -29.5t-128.5 -7q-30 0 -67 1t-79 2.5t-86.5 4t-87.5 4.5v713zM160 333v-268q70 -4 134 -6t109 -2
q55 0 104 5t86 20t59 43t22 75q0 44 -20 70t-56 40t-86.5 18.5t-111.5 4.5h-240zM402 402q30 0 58 -1.5t54 -3.5q66 14 98 43.5t32 83.5q0 43 -19 69t-52 40t-77.5 18.5t-95.5 4.5q-40 0 -104.5 -2t-135.5 -6v-246h242z" />
    <glyph glyph-name="C" unicode="C" horiz-adv-x="813" 
d="M735 9q-69 -10 -139 -16t-127 -6q-73 0 -142.5 11.5t-123.5 49.5t-86.5 111.5t-32.5 197.5t32.5 197.5t86.5 111.5t123.5 49.5t142.5 11.5q57 0 127 -6t139 -16l-6 -69q-33 6 -67.5 10.5t-68 7t-64 3.5t-55.5 1q-41 0 -80.5 -3t-75 -13.5t-65.5 -30t-52 -53t-34 -83
t-12 -118.5t12 -118.5t34 -83t52 -53t65.5 -30t75 -13.5t80.5 -3q25 0 55.5 1t64 3.5t68 7t67.5 10.5l6 -69v0z" />
    <glyph glyph-name="D" unicode="D" horiz-adv-x="867" 
d="M88 0v713h1q39 3 79.5 5.5t79.5 4.5t75 3t65 1q75 0 145.5 -11.5t125 -49.5t88 -111.5t33.5 -197.5q0 -123 -33.5 -195.5t-88 -110.5t-125.5 -49.5t-146 -11.5q-29 0 -64.5 0.5t-74.5 2t-79.5 3.5t-79.5 4h-1zM383 658q-42 0 -101.5 -2t-121.5 -7v-584q31 -2 62 -3
t59.5 -2t53 -1h42.5q65 0 125 8t106 38t73.5 89.5t27.5 162.5q0 104 -27.5 164t-72.5 90.5t-104 38.5t-122 8z" />
    <glyph glyph-name="E" unicode="E" horiz-adv-x="765" 
d="M88 0v713h597l-6 -70h-519v-252h465l-4 -70h-461v-252h525l-6 -69h-591z" />
    <glyph glyph-name="F" unicode="F" horiz-adv-x="747" 
d="M88 0v713h597l-6 -70h-519v-252h465l-4 -70h-461v-321h-72z" />
    <glyph glyph-name="G" unicode="G" horiz-adv-x="863" 
d="M155 357q0 -103 28.5 -163t75 -90.5t105.5 -39t121 -8.5q49 0 105 3t113 14v248h-293v70h365v-372q-84 -16 -154.5 -24t-144.5 -8q-48 0 -95.5 4.5t-91.5 18.5t-81 39t-65 66t-43.5 100.5t-15.5 141.5q0 123 34 196t90 112t126.5 50.5t144.5 11.5q68 0 137.5 -6
t138.5 -16l-6 -69q-66 13 -135.5 17.5t-126.5 4.5q-42 0 -82.5 -3t-77.5 -13.5t-68.5 -30.5t-54.5 -53.5t-36 -82.5t-13 -118z" />
    <glyph glyph-name="H" unicode="H" horiz-adv-x="862" 
d="M88 0v713h72v-322h542v322h72v-713h-72v321h-542v-321h-72z" />
    <glyph glyph-name="I" unicode="I" horiz-adv-x="248" 
d="M88 0v713h72v-713h-72z" />
    <glyph glyph-name="J" unicode="J" horiz-adv-x="434" 
d="M260 713h72v-549q0 -53 -11 -86.5t-30 -52t-44.5 -25t-54.5 -6.5q-25 0 -58.5 4t-69.5 10l7 69q14 -4 30 -6.5t31 -4t27 -2t20 -0.5q16 0 31 3.5t26 14t17.5 30.5t6.5 52v549z" />
    <glyph glyph-name="K" unicode="K" horiz-adv-x="764" 
d="M88 0v713h72v-322h179l291 322h90l1 -2l-318 -355l316 -351l-1 -6l-78 -10l-300 332h-180v-321h-72z" />
    <glyph glyph-name="L" unicode="L" horiz-adv-x="765" 
d="M679 0h-591v713h72v-644h525z" />
    <glyph glyph-name="M" unicode="M" horiz-adv-x="957" 
d="M799 0v572l-289 -429h-61l-289 429v-572h-72v713h63l328 -491l329 491h61v-713h-70z" />
    <glyph glyph-name="N" unicode="N" horiz-adv-x="840" 
d="M695 0l-535 593v-593h-72v713h59l534 -594v594h71v-713h-57z" />
    <glyph glyph-name="O" unicode="O" horiz-adv-x="917" 
d="M456 -14q-75 0 -142.5 17t-118.5 59.5t-81 114.5t-30 181q0 106 28.5 176.5t78 113.5t117 61t145.5 18q75 0 142.5 -17t118.5 -59.5t81 -114.5t30 -181q0 -106 -28.5 -177t-78 -113.5t-117 -60.5t-145.5 -18zM456 56q63 0 117 14.5t94 49t63 92t23 143.5q0 89 -24 147
t-65 92.5t-95.5 48.5t-115.5 14q-63 0 -117 -14.5t-94 -49t-63 -92t-23 -143.5q0 -89 24 -147t65 -92.5t95.5 -48.5t115.5 -14z" />
    <glyph glyph-name="P" unicode="P" horiz-adv-x="795" 
d="M88 0v713q46 3 94 5t92 3.5t82 2.5t66 1q68 0 125.5 -8t99.5 -33t65.5 -71.5t23.5 -124.5t-23.5 -124.5t-65.5 -71.5t-99.5 -33t-125.5 -8q-45 0 -115.5 2t-146.5 6v-259h-72zM664 488q0 55 -18.5 88.5t-51 51t-77.5 23t-97 5.5q-44 0 -113.5 -2.5t-146.5 -6.5v-319
q77 -4 146.5 -6t113.5 -2q52 0 97 5.5t77.5 23t51 50.5t18.5 89z" />
    <glyph glyph-name="Q" unicode="Q" horiz-adv-x="914" 
d="M456 -14q-75 0 -142.5 17t-118.5 59.5t-81 114.5t-30 181q0 106 28.5 176.5t78 113.5t117 61t145.5 18q75 0 142.5 -17t118.5 -59.5t81 -114.5t30 -181q0 -66 -11.5 -118.5t-33 -92.5t-51.5 -68.5t-67 -47.5l126 -141l-71 -20l-120 136q-66 -17 -141 -17zM456 56
q23 0 44.5 1.5t42.5 5.5l-128 145l69 20l128 -144q32 15 58 38t44.5 56t28.5 77t10 100q0 89 -24 147t-65 92.5t-95.5 48.5t-115.5 14q-63 0 -117 -14.5t-94 -49t-63 -92t-23 -143.5q0 -89 24 -147t65 -92.5t95.5 -48.5t115.5 -14z" />
    <glyph glyph-name="R" unicode="R" horiz-adv-x="794" 
d="M88 0v713q46 3 94 5t92 3.5t82 2.5t66 1q68 0 125.5 -8t99.5 -33t65.5 -71.5t23.5 -124.5q0 -56 -12.5 -95t-35 -66t-55 -42.5t-71.5 -22.5l159 -257l-1 -6l-72 -9l-163 262q-15 -1 -30.5 -1h-32.5q-45 0 -115.5 2t-146.5 6v-259h-72zM664 488q0 55 -18.5 88.5t-51 51
t-77.5 23t-97 5.5q-44 0 -113.5 -2.5t-146.5 -6.5v-319q77 -4 146.5 -6t113.5 -2q52 0 97 5.5t77.5 23t51 50.5t18.5 89z" />
    <glyph glyph-name="S" unicode="S" horiz-adv-x="784" 
d="M381 54q40 0 84.5 3.5t81.5 17t61 39t24 70.5q0 38 -18.5 61t-51.5 37.5t-77 22.5t-95 16q-63 11 -117.5 22.5t-95 33.5t-64 57.5t-23.5 94.5q0 62 25.5 100.5t68 60.5t97.5 29.5t113 7.5q60 0 133 -6t145 -16l-5 -69q-72 13 -143.5 17.5t-126.5 4.5q-42 0 -84 -3.5
t-75.5 -17t-54.5 -39.5t-21 -71q0 -37 15 -59.5t43.5 -36.5t71 -22.5t98.5 -17.5q67 -11 124 -24t99 -34.5t66 -57t24 -91.5q0 -64 -29 -103t-74.5 -60t-101 -28t-108.5 -7q-69 0 -149 5.5t-160 16.5l4 69q81 -14 159.5 -18.5t136.5 -4.5z" />
    <glyph glyph-name="T" unicode="T" horiz-adv-x="771" 
d="M358 0v643h-306v70h674l-6 -70h-291v-643h-71z" />
    <glyph glyph-name="U" unicode="U" horiz-adv-x="852" 
d="M693 713h71v-440q0 -77 -26 -131t-71 -89t-106 -51t-130 -16q-70 0 -131.5 16t-107 51t-71.5 89t-26 131v440h72v-440q0 -58 21 -99.5t57 -68t84 -39t102 -12.5t101.5 12.5t83 39t56.5 68t21 99.5v440z" />
    <glyph glyph-name="V" unicode="V" horiz-adv-x="908" 
d="M138 713l316 -620l316 620h80l-366 -713h-60l-366 713h80z" />
    <glyph glyph-name="W" unicode="W" horiz-adv-x="1208" 
d="M311 0l-252 713h74l207 -604l234 604h59l235 -604l205 604h76l-250 -713h-60l-236 605l-233 -605h-59z" />
    <glyph glyph-name="X" unicode="X" horiz-adv-x="770" 
d="M53 0l289 366l-273 347h86l230 -292l231 292h88l-275 -348l289 -365h-86l-246 311l-245 -311h-88z" />
    <glyph glyph-name="Y" unicode="Y" horiz-adv-x="849" 
d="M145 713l279 -327l281 327h89l-334 -388v-325h-70v325l-334 388h89z" />
    <glyph glyph-name="Z" unicode="Z" horiz-adv-x="804" 
d="M85 0v54l528 589h-510v70h613v-55l-531 -589h525l6 -69h-631z" />
    <glyph glyph-name="bracketleft" unicode="[" horiz-adv-x="451" 
d="M78 -281v1052h310l-7 -68h-232v-916h239l-7 -68h-303z" />
    <glyph glyph-name="backslash" unicode="\" horiz-adv-x="454" 
d="M396 -220h-72l-266 1002h72z" />
    <glyph glyph-name="bracketright" unicode="]" horiz-adv-x="450" 
d="M65 -281l-5 68h238v916h-233l-5 68h309v-1052h-304z" />
    <glyph glyph-name="asciicircum" unicode="^" horiz-adv-x="469" 
d="M235 706l-130 -266h-74l174 341h60l173 -341h-74z" />
    <glyph glyph-name="underscore" unicode="_" 
d="M0 -230v70h700v-70h-700z" />
    <glyph glyph-name="grave" unicode="`" horiz-adv-x="228" 
d="M181 636l-160 96l40 58l146 -114z" />
    <glyph glyph-name="a" unicode="a" horiz-adv-x="750" 
d="M111 557q34 6 72.5 10t74 6.5t65.5 4t49 1.5q125 0 196.5 -58t71.5 -177v-203q0 -16 2 -31t7.5 -26t15.5 -18t27 -7q10 0 12 1t2 2l4 -69q-6 -1 -10.5 -1h-9.5q-48 0 -74 21t-37 53q-19 -20 -42 -34.5t-53.5 -25t-69.5 -15.5t-90 -5q-56 0 -102 8t-79 28t-51 55.5
t-18 91.5q0 53 16.5 88.5t47.5 56.5t74 30t96 9q15 0 42.5 -1t62 -2.5t74.5 -3.5t81 -5v4q0 83 -47.5 123t-149.5 42q-20 0 -49.5 -1t-64 -4t-71 -7.5t-69.5 -9.5zM323 55q49 0 86 5t66 14.5t51.5 25t41.5 36.5v5v132q-42 3 -83 5t-77 3.5t-63 2.5t-40 1q-36 0 -65.5 -5.5
t-50 -19t-32 -36t-11.5 -56.5q0 -36 13 -58.5t36.5 -34.5t56 -16t71.5 -4z" />
    <glyph glyph-name="b" unicode="b" horiz-adv-x="719" 
d="M149 554q61 11 118.5 18t99.5 7q59 0 109.5 -16t88 -52t59 -94.5t21.5 -143.5q0 -86 -21.5 -141.5t-59.5 -88t-90.5 -45t-113.5 -12.5q-24 0 -56 1.5t-69.5 4.5t-77.5 7t-79 9v770l71 4v-228zM360 510q-16 0 -39.5 -1.5t-51 -4t-58.5 -7t-62 -10.5v-420
q63 -8 118.5 -10.5t86.5 -2.5q48 0 88.5 8.5t70 32.5t45.5 67t16 111t-16 113.5t-44.5 73t-68 39t-85.5 11.5z" />
    <glyph glyph-name="c" unicode="c" horiz-adv-x="677" 
d="M374 54q45 0 105 4.5t120 18.5l5 -69q-61 -11 -122.5 -16.5t-112.5 -5.5q-61 0 -115 17t-94 53t-63 92t-23 135q0 89 23 146.5t63 90.5t94 46t115 13q51 0 112.5 -6t122.5 -16l-5 -70q-60 14 -120 18.5t-105 4.5q-48 0 -89.5 -9t-72 -34t-48.5 -69.5t-18 -114.5
q0 -61 18 -104.5t48.5 -71t72 -40.5t89.5 -13z" />
    <glyph glyph-name="d" unicode="d" horiz-adv-x="718" 
d="M568 778l72 4v-774q-39 -5 -79 -9t-77 -7t-69.5 -4.5t-55.5 -1.5q-62 0 -114 12.5t-90 45t-59.5 88t-21.5 141.5q0 85 21.5 143.5t59 94.5t88.5 52t111 16q39 0 96 -6.5t118 -17.5v223zM359 510q-47 0 -86 -11.5t-67 -39t-44 -73t-16 -113.5t16 -111t44.5 -67t69 -32.5
t88.5 -8.5q31 0 86 2.5t118 10.5v420q-31 6 -62 10.5t-58.5 7t-50.5 4t-38 1.5z" />
    <glyph glyph-name="e" unicode="e" horiz-adv-x="739" 
d="M385 -14q-69 0 -126.5 16t-98.5 52t-63.5 93.5t-22.5 139.5q0 88 25 144.5t67 89.5t97.5 45.5t117.5 12.5q66 0 119 -14t90 -48.5t56.5 -91.5t19.5 -142v-34h-519q10 -104 72.5 -149.5t171.5 -45.5q16 0 44.5 1t63 3.5t72 7t71.5 11.5l5 -69q-35 -5 -72.5 -9t-72 -7
t-65 -4.5t-52.5 -1.5zM379 507q-43 0 -83 -7t-72 -28t-52.5 -58.5t-24.5 -97.5h447q-3 56 -19 93t-43 58.5t-65.5 30.5t-87.5 9z" />
    <glyph glyph-name="f" unicode="f" horiz-adv-x="440" 
d="M199 564h194v-67h-194v-497h-72v497h-71v67h71v99q0 54 11.5 87t33 51t52 24.5t68.5 6.5q19 0 43.5 -3t57.5 -11l-5 -69q-30 8 -61.5 10.5t-45.5 2.5q-17 0 -32 -3.5t-26 -14.5t-17.5 -30.5t-6.5 -50.5v-99z" />
    <glyph glyph-name="g" unicode="g" horiz-adv-x="718" 
d="M568 9q-61 -11 -118 -17t-96 -6q-60 0 -111 15.5t-88.5 51.5t-59 94.5t-21.5 143.5q0 86 21.5 141.5t59.5 88t90 45.5t114 13q23 0 55.5 -1.5t69.5 -4.5t77 -7t79 -9v-552q0 -59 -19.5 -103.5t-53 -73.5t-79.5 -43.5t-99 -14.5q-60 0 -133 5.5t-145 16.5l6 69
q71 -14 142 -18.5t127 -4.5q38 0 71 11t58 32t39 52t14 71v5zM359 54q15 0 38 1t50.5 4t58.5 7.5t62 10.5v419q-63 8 -118 11t-86 3q-48 0 -88.5 -8.5t-69 -32.5t-44.5 -67t-16 -111t16 -113.5t44 -73t67 -39t86 -11.5z" />
    <glyph glyph-name="h" unicode="h" horiz-adv-x="723" 
d="M78 0v778l71 4v-228q61 11 118.5 18t99.5 7q59 0 109.5 -16t88 -52t59 -94.5t21.5 -143.5v-273h-71v273q0 68 -16 113.5t-44.5 73t-68 39t-85.5 11.5q-16 0 -39.5 -1.5t-51 -4t-58.5 -7t-62 -10.5v-487h-71z" />
    <glyph glyph-name="i" unicode="i" horiz-adv-x="227" 
d="M149 564v-564h-71v564h71zM78 672v106l71 4v-110h-71z" />
    <glyph glyph-name="j" unicode="j" horiz-adv-x="227" 
d="M149 -121q0 -54 -8.5 -87t-23.5 -51.5t-35 -24.5t-42 -6q-17 0 -40 2t-46 5l7 68q15 -2 35 -4t30 -2t19.5 3.5t17 14t11.5 30.5t4 52v685h71v-685zM78 672v106l71 4v-110h-71z" />
    <glyph glyph-name="k" unicode="k" horiz-adv-x="618" 
d="M78 0v778l71 4v-466h122l224 248h94l-254 -282l254 -282h-94l-224 249h-122v-249h-71z" />
    <glyph glyph-name="l" unicode="l" horiz-adv-x="227" 
d="M78 0v778l71 4v-782h-71z" />
    <glyph glyph-name="m" unicode="m" horiz-adv-x="1001" 
d="M78 557q33 5 67.5 9t66 7t57.5 4.5t42 1.5q45 0 83.5 -8t67.5 -28q71 18 125 27t99 9q49 0 92.5 -11t75.5 -38t50.5 -73t18.5 -116v-341h-71v341q0 52 -13 85t-36.5 51.5t-54.5 25.5t-67 7q-35 0 -74.5 -7t-89.5 -24q23 -49 23 -128v-351h-71v351q0 53 -11.5 84.5t-33 48
t-52 21.5t-67.5 5q-19 0 -62 -2.5t-94 -10.5v-497h-71v557v0z" />
    <glyph glyph-name="n" unicode="n" horiz-adv-x="723" 
d="M78 557q39 5 79 9t77.5 7t69.5 4.5t56 1.5q61 0 113.5 -13t90.5 -45.5t59.5 -88t21.5 -141.5v-291h-71v291q0 68 -16 111t-45.5 67t-70 32.5t-88.5 8.5q-31 0 -86.5 -3t-118.5 -11v-496h-71v557v0z" />
    <glyph glyph-name="o" unicode="o" horiz-adv-x="741" 
d="M371 -15q-60 0 -114 14t-94.5 48t-64.5 91.5t-24 144.5q0 85 22.5 141.5t62.5 91t94 49t116 14.5q60 0 114.5 -14t95 -48t64.5 -91.5t24 -144.5q0 -85 -23 -141.5t-62.5 -91t-93.5 -49t-117 -14.5zM371 55q47 0 88 11t71 37t47.5 69.5t17.5 108.5q0 67 -18 111t-49 70
t-72 36.5t-87 10.5q-47 0 -87.5 -11t-70.5 -37t-47.5 -69.5t-17.5 -108.5q0 -67 18 -111t49 -70t72 -36.5t86 -10.5z" />
    <glyph glyph-name="p" unicode="p" horiz-adv-x="718" 
d="M78 -220v777q39 5 79 9t77.5 7t69.5 4.5t56 1.5q61 0 113.5 -13t90.5 -45.5t59.5 -88t21.5 -141.5q0 -85 -21.5 -143.5t-59 -94.5t-88 -51.5t-109.5 -15.5q-42 0 -99.5 6t-118.5 17v-229h-71zM360 54q46 0 85.5 11.5t68 39t44.5 73t16 113.5t-16 111t-45.5 67t-70 32.5
t-88.5 8.5q-31 0 -86.5 -3t-118.5 -11v-419q31 -6 62 -10.5t58.5 -7.5t51 -4t39.5 -1z" />
    <glyph glyph-name="q" unicode="q" horiz-adv-x="718" 
d="M568 -220v229q-61 -11 -118 -17t-96 -6q-60 0 -111 15.5t-88.5 51.5t-59 94.5t-21.5 143.5q0 86 21.5 141.5t59.5 88t90 45.5t114 13q23 0 55.5 -1.5t69.5 -4.5t77 -7t79 -9v-777h-72zM359 54q15 0 38 1t50.5 4t58.5 7.5t62 10.5v419q-63 8 -118 11t-86 3
q-48 0 -88.5 -8.5t-69 -32.5t-44.5 -67t-16 -111t16 -113.5t44 -73t67 -39t86 -11.5z" />
    <glyph glyph-name="r" unicode="r" horiz-adv-x="394" 
d="M78 0v541q37 7 76.5 12.5t76.5 9.5t70 6t59 2v-67q-16 0 -39.5 -1t-51 -3.5t-58.5 -6.5t-62 -9v-484h-71z" />
    <glyph glyph-name="s" unicode="s" horiz-adv-x="637" 
d="M307 54q35 0 68.5 3.5t59 14t41 29.5t15.5 50q0 30 -14.5 47t-39 26.5t-57 15t-69.5 11.5q-57 8 -101.5 18t-75.5 27t-47 44t-16 71q0 51 20.5 84t54 51.5t77.5 25.5t91 7q49 0 110.5 -6t123.5 -16l-5 -70q-30 7 -61 11.5t-60.5 7t-56 3.5t-48.5 1q-37 0 -69 -4
t-55 -14.5t-36.5 -28.5t-13.5 -47q0 -33 16.5 -50.5t42 -26t56 -12t57.5 -7.5q52 -9 97.5 -18.5t79 -26.5t52.5 -46t19 -75q0 -52 -22.5 -85t-59 -51.5t-82.5 -25t-92 -6.5q-48 0 -108.5 5.5t-123.5 16.5l6 69q60 -14 120.5 -18.5t105.5 -4.5z" />
    <glyph glyph-name="t" unicode="t" horiz-adv-x="460" 
d="M200 162q0 -32 6.5 -52t17.5 -30.5t26 -14t32 -3.5q7 0 19 0.5t26.5 2t30.5 3.5t31 6l5 -69q-26 -8 -54 -10t-47 -2q-38 0 -68.5 6.5t-52 24.5t-33 51t-11.5 87v335h-71v67h71v145l72 4v-149h194v-67h-194v-335z" />
    <glyph glyph-name="u" unicode="u" horiz-adv-x="723" 
d="M78 564h71v-315q0 -55 16 -92.5t44.5 -60t68 -32t85.5 -9.5q32 0 90 5t121 18v486h71v-540q-39 -9 -79 -16t-78 -12t-72 -7.5t-60 -2.5q-59 0 -109.5 13.5t-88 44t-59 81t-21.5 124.5v315z" />
    <glyph glyph-name="v" unicode="v" horiz-adv-x="731" 
d="M604 564h78l-286 -564h-60l-288 564h78l240 -479z" />
    <glyph glyph-name="w" unicode="w" horiz-adv-x="966" 
d="M249 0l-201 564h73l159 -455l173 455h59l172 -455l159 455h74l-202 -564h-61l-172 449l-172 -449h-61z" />
    <glyph glyph-name="x" unicode="x" horiz-adv-x="625" 
d="M49 0l218 282l-218 282h88l174 -226l174 226h87l-218 -282l218 -282h-87l-174 225l-174 -225h-88z" />
    <glyph glyph-name="y" unicode="y" horiz-adv-x="730" 
d="M338 24l-290 540h81l247 -464l230 464h75l-389 -784h-75z" />
    <glyph glyph-name="z" unicode="z" horiz-adv-x="660" 
d="M78 0v57l411 442h-396v65h489v-54l-409 -441h409v-69h-504z" />
    <glyph glyph-name="braceleft" unicode="{" horiz-adv-x="469" 
d="M275 26q2 -48 4.5 -83t9.5 -58t21 -34.5t38 -11.5h14t17 2l6 -68q-12 -2 -24 -2.5t-20 -0.5q-47 0 -73.5 20.5t-40 55.5t-17.5 81t-6 98q-2 47 -5 87t-14 68.5t-32.5 44.5t-60.5 16h-8v69h8q39 0 60.5 16t32.5 44.5t14 68.5t5 87q2 49 5.5 95.5t17 81.5t40 56.5
t74.5 21.5q8 0 20 -0.5t24 -2.5l-6 -68q-9 1 -17 1.5t-15 0.5q-14 0 -27 -5t-23 -24t-16 -56.5t-6 -101.5q0 -69 -10 -114.5t-27.5 -74t-40.5 -42.5t-49 -19q40 -8 64.5 -29.5t37.5 -54t18 -74.5t7 -91z" />
    <glyph glyph-name="bar" unicode="|" horiz-adv-x="218" 
d="M78 -143v999h59v-999h-59z" />
    <glyph glyph-name="braceright" unicode="}" horiz-adv-x="469" 
d="M194 26q2 49 7 91t18 74.5t37 54t64 29.5q-26 5 -49 19t-40 42.5t-27 74t-10 114.5q0 64 -6 101.5t-16 56.5t-23 24t-27 5q-7 0 -15 -0.5t-17 -1.5l-6 68q12 2 24 2.5t20 0.5q48 0 74.5 -21.5t40 -56.5t17 -81.5t5.5 -95.5q2 -47 5 -87t14 -68.5t32.5 -44.5t60.5 -16h8
v-69h-8q-39 0 -60.5 -16t-32.5 -44.5t-14 -68.5t-5 -87q-2 -52 -6 -98t-17.5 -81t-40 -55.5t-73.5 -20.5q-8 0 -20 0.5t-24 2.5l6 68q9 -2 17 -2h14q24 0 38 11.5t21 34.5t9.5 58t4.5 83z" />
    <glyph glyph-name="asciitilde" unicode="~" horiz-adv-x="472" 
d="M51 296q32 32 59 44t53 12q21 0 40 -5.5t37 -12.5t35.5 -12.5t35.5 -5.5q17 0 34 6.5t35 24.5l41 -44q-31 -32 -58 -44t-52 -12q-20 0 -39 5.5t-37 12.5t-36 12.5t-36 5.5q-17 0 -34.5 -6.5t-36.5 -24.5z" />
    <glyph glyph-name="dieresis" unicode="&#xa8;" horiz-adv-x="505" 
d="M74 669v81h72v-81h-72zM359 669v81h72v-81h-72z" />
    <glyph glyph-name="copyright" unicode="&#xa9;" horiz-adv-x="741" 
d="M375 47q-63 0 -118 16t-95.5 52t-64 93.5t-23.5 140.5t23 139t63 89.5t93 48t112 14.5q63 0 118.5 -16t96 -52t64 -93.5t23.5 -139.5q0 -83 -23.5 -139t-63 -90t-92.5 -48.5t-113 -14.5zM375 91q50 0 95 12t78.5 41t53 76.5t19.5 118.5q0 70 -20 119t-54.5 80t-81 44.5
t-100.5 13.5q-50 0 -95 -12t-78.5 -40.5t-53 -76t-19.5 -118.5t20 -120t54.5 -79.5t81 -44.5t100.5 -14zM369 210q25 0 58.5 3t66.5 11l3 -41q-34 -7 -68 -10t-63 -3q-35 0 -65 9.5t-53 30t-36 52t-13 76.5q0 50 13 82.5t36 51t53 26t65 7.5q29 0 63 -3.5t68 -9.5l-3 -42
q-33 8 -66.5 11t-58.5 3q-26 0 -49 -5t-40 -18.5t-27 -38.5t-10 -64q0 -34 10 -58t27 -39.5t40 -23t49 -7.5z" />
    <glyph glyph-name="guillemotleft" unicode="&#xab;" horiz-adv-x="624" 
d="M64 282l218 282h87l-218 -282l218 -282h-87zM264 282l218 282h87l-218 -282l218 -282h-87z" />
    <glyph glyph-name="registered" unicode="&#xae;" horiz-adv-x="741" 
d="M375 177q-63 0 -118 16t-95.5 52t-64 93.5t-23.5 140.5t23 139t63 89.5t93 48t112 14.5q63 0 118.5 -16t96 -52t64 -93.5t23.5 -139.5q0 -83 -23.5 -139t-63 -90t-92.5 -48.5t-113 -14.5zM375 221q50 0 95 12t78.5 41t53 76.5t19.5 118.5q0 70 -20 119t-54.5 80t-81 44.5
t-100.5 13.5q-50 0 -95 -12t-78.5 -40.5t-53 -76t-19.5 -118.5t20 -120t54.5 -79.5t81 -44.5t100.5 -14zM243 307v328h198q36 0 61.5 -23t25.5 -75q0 -51 -25.5 -74t-61.5 -23h-15l102 -133h-58l-101 133h-80v-133h-46zM441 483q17 0 29.5 12.5t12.5 41.5t-12.5 42.5
t-29.5 13.5h-152v-110h152z" />
    <glyph glyph-name="macron" unicode="&#xaf;" horiz-adv-x="546" 
d="M78 678v60h390v-60h-390z" />
    <glyph glyph-name="acute" unicode="&#xb4;" horiz-adv-x="228" 
d="M21 676l146 114l40 -58l-160 -96z" />
    <glyph glyph-name="guillemotright" unicode="&#xbb;" horiz-adv-x="624" 
d="M350 0h-87l218 282l-218 282h87l218 -282zM150 0h-87l218 282l-218 282h87l218 -282z" />
    <glyph glyph-name="uni02BC" unicode="&#x2bc;" horiz-adv-x="272" 
d="M54 462q16 34 28.5 69.5t21.5 68.5t13.5 62t4.5 51h72q0 -26 -5 -59t-14.5 -69.5t-23 -75.5t-29.5 -76z" />
    <glyph glyph-name="breve" unicode="&#x2d8;" horiz-adv-x="461" 
d="M230 694q53 0 73 16.5t20 51.5h64q0 -69 -39.5 -98.5t-117.5 -29.5t-117.5 29.5t-39.5 98.5h65q0 -35 19.5 -51.5t72.5 -16.5z" />
    <glyph glyph-name="dotaccent" unicode="&#x2d9;" horiz-adv-x="227" 
d="M78 649v121h71v-121h-71z" />
    <glyph glyph-name="uni0400" unicode="&#x400;" horiz-adv-x="765" 
d="M88 0v713h597l-6 -70h-519v-252h465l-4 -70h-461v-252h525l-6 -69h-591zM403 786l-160 96l40 58l146 -114z" />
    <glyph glyph-name="uni0401" unicode="&#x401;" horiz-adv-x="765" 
d="M88 0v713h597l-6 -70h-519v-252h465l-4 -70h-461v-252h525l-6 -69h-591zM230 788v81h72v-81h-72zM475 788v81h72v-81h-72z" />
    <glyph glyph-name="uni0402" unicode="&#x402;" horiz-adv-x="943" 
d="M523 58q63 0 112 9t82.5 29.5t51.5 54t18 83.5v20q0 50 -18 84t-51.5 54.5t-82.5 29.5t-112 9q-33 0 -58.5 -1.5t-47 -4.5t-40.5 -6.5t-38 -6.5v-412h-71v643h-206v70h674l-6 -70h-391v-162q39 7 84 12.5t107 5.5q76 0 137 -12.5t103.5 -41t65 -75.5t22.5 -115v-21
q0 -68 -22.5 -115t-65 -75.5t-103.5 -41t-137 -12.5z" />
    <glyph glyph-name="uni0403" unicode="&#x403;" horiz-adv-x="748" 
d="M88 0v713h597l-6 -70h-519v-643h-72zM293 826l146 114l40 -58l-160 -96z" />
    <glyph glyph-name="uni0404" unicode="&#x404;" horiz-adv-x="813" 
d="M735 9q-69 -10 -139 -16t-127 -6q-73 0 -142.5 11.5t-123.5 49.5t-86.5 111.5t-32.5 197.5t32.5 197.5t86.5 111.5t123.5 49.5t142.5 11.5q57 0 127 -6t139 -16l-6 -69q-33 6 -67.5 10.5t-68 7t-64 3.5t-55.5 1q-59 0 -114.5 -7.5t-99 -34.5t-72 -80.5t-32.5 -145.5h502
v-68h-502q5 -92 33 -145t72 -80t99 -34t114 -7q25 0 55.5 1t64 3.5t68 7t67.5 10.5l6 -69v0z" />
    <glyph glyph-name="uni0405" unicode="&#x405;" horiz-adv-x="784" 
d="M381 54q40 0 84.5 3.5t81.5 17t61 39t24 70.5q0 38 -18.5 61t-51.5 37.5t-77 22.5t-95 16q-63 11 -117.5 22.5t-95 33.5t-64 57.5t-23.5 94.5q0 62 25.5 100.5t68 60.5t97.5 29.5t113 7.5q60 0 133 -6t145 -16l-5 -69q-72 13 -143.5 17.5t-126.5 4.5q-42 0 -84 -3.5
t-75.5 -17t-54.5 -39.5t-21 -71q0 -37 15 -59.5t43.5 -36.5t71 -22.5t98.5 -17.5q67 -11 124 -24t99 -34.5t66 -57t24 -91.5q0 -64 -29 -103t-74.5 -60t-101 -28t-108.5 -7q-69 0 -149 5.5t-160 16.5l4 69q81 -14 159.5 -18.5t136.5 -4.5z" />
    <glyph glyph-name="uni0406" unicode="&#x406;" horiz-adv-x="248" 
d="M88 0v713h72v-713h-72z" />
    <glyph glyph-name="uni0407" unicode="&#x407;" horiz-adv-x="248" 
d="M11 778v101h71v-101h-71zM164 778v101h72v-101h-72zM87 0v713h72v-713h-72z" />
    <glyph glyph-name="uni0408" unicode="&#x408;" horiz-adv-x="434" 
d="M260 713h72v-549q0 -53 -11 -86.5t-30 -52t-44.5 -25t-54.5 -6.5q-25 0 -58.5 4t-69.5 10l7 69q14 -4 30 -6.5t31 -4t27 -2t20 -0.5q16 0 31 3.5t26 14t17.5 30.5t6.5 52v549z" />
    <glyph glyph-name="uni0409" unicode="&#x409;" horiz-adv-x="1240" 
d="M193 713h485v-279q61 3 118 5.5t98 2.5q60 0 111.5 -8t89 -32t58.5 -68.5t21 -118.5t-21.5 -119t-59 -69t-89.5 -31.5t-113 -7.5q-24 0 -57 1t-70.5 2.5t-78 3.5t-79.5 5v643h-344l-22 -479q0 -53 -11 -86.5t-29.5 -52t-44 -25t-54.5 -6.5q-11 0 -24 2t-27 3l6 66
q10 -1 17.5 -1h12.5q18 0 33 3.5t26.5 14t18 30.5t6.5 52zM1102 215q0 52 -16 83.5t-44.5 48t-68 21.5t-85.5 5q-36 0 -92 -2t-118 -6v-301q62 -3 118 -5t92 -2q46 0 85.5 5t68 21.5t44.5 48t16 83.5z" />
    <glyph glyph-name="uni040A" unicode="&#x40a;" horiz-adv-x="1261" 
d="M85 0v713h72v-322h470v322h72v-279q61 3 118 5.5t98 2.5q60 0 111.5 -8t89 -32t58.5 -68.5t21 -118.5t-21.5 -119t-59 -69t-89.5 -31.5t-113 -7.5q-24 0 -57 1t-70.5 2.5t-78 3.5t-79.5 5v321h-470v-321h-72zM1123 215q0 52 -16 83.5t-44.5 48t-68 21.5t-85.5 5
q-36 0 -92 -2.5t-118 -5.5v-301q62 -3 118 -5t92 -2q46 0 85.5 5t68 21.5t44.5 48t16 83.5z" />
    <glyph glyph-name="uni040B" unicode="&#x40b;" horiz-adv-x="943" 
d="M858 0h-71v254q0 50 -18 84t-51.5 54.5t-82.5 29.5t-112 9q-33 0 -58.5 -1.5t-47 -4.5t-40.5 -6.5t-38 -6.5v-412h-71v643h-206v70h674l-6 -70h-391v-162q39 7 84 12.5t107 5.5q76 0 137 -12.5t103.5 -41t65 -75.5t22.5 -115v-255z" />
    <glyph glyph-name="uni040C" unicode="&#x40c;" horiz-adv-x="764" 
d="M88 0v713h72v-322h179l291 322h90l1 -2l-318 -355l316 -351l-1 -6l-78 -10l-300 332h-180v-321h-72zM287 826l146 114l40 -58l-160 -96z" />
    <glyph glyph-name="uni040D" unicode="&#x40d;" horiz-adv-x="840" 
d="M88 0v713h72v-594l535 594h57v-713h-71v593l-534 -593h-59zM439 786l-160 96l40 58l146 -114z" />
    <glyph glyph-name="uni040E" unicode="&#x40e;" horiz-adv-x="806" 
d="M381 175l-2 -1l-317 539h80l275 -470l248 470h79l-380 -713h-75zM403 842q53 0 73 16.5t20 51.5h64q0 -69 -39.5 -98.5t-117.5 -29.5t-117.5 29.5t-39.5 98.5h65q0 -35 19.5 -51.5t72.5 -16.5z" />
    <glyph glyph-name="uni040F" unicode="&#x40f;" horiz-adv-x="805" 
d="M366 -230v230h-278v713h72v-643h485v643h72v-713h-279v-230h-72z" />
    <glyph glyph-name="uni0410" unicode="&#x410;" horiz-adv-x="907" 
d="M685 165h-463l-84 -165h-80l366 713h60l366 -713h-80zM254 228h399l-199 391z" />
    <glyph glyph-name="uni0411" unicode="&#x411;" horiz-adv-x="824" 
d="M160 643v-210q76 4 146.5 6.5t119.5 2.5q67 0 123.5 -8t98 -32t65 -68.5t23.5 -118.5t-23.5 -119t-65.5 -69t-99.5 -31.5t-124.5 -7.5q-28 0 -66.5 1t-82.5 2.5t-92 3.5t-94 5v713h597l-6 -70h-519zM664 215q0 52 -18.5 83.5t-51 48t-77.5 21.5t-97 5q-44 0 -113.5 -2.5
t-146.5 -6.5v-299q77 -4 146.5 -6t113.5 -2q52 0 97 5t77.5 21.5t51 48t18.5 83.5z" />
    <glyph glyph-name="uni0412" unicode="&#x412;" horiz-adv-x="824" 
d="M88 713q43 3 88 5t86 3.5t77 2.5t62 1q64 0 121.5 -7t100.5 -28t68 -60t25 -103q0 -65 -27 -102t-79 -56q67 -19 101.5 -59t34.5 -113q0 -68 -27.5 -109t-74 -63.5t-108 -29.5t-128.5 -7q-30 0 -67 1t-79 2.5t-86.5 4t-87.5 4.5v713zM160 333v-268q70 -4 134 -6t109 -2
q55 0 104 5t86 20t59 43t22 75q0 44 -20 70t-56 40t-86.5 18.5t-111.5 4.5h-240zM402 402q30 0 58 -1.5t54 -3.5q66 14 98 43.5t32 83.5q0 43 -19 69t-52 40t-77.5 18.5t-95.5 4.5q-40 0 -104.5 -2t-135.5 -6v-246h242z" />
    <glyph glyph-name="uni0413" unicode="&#x413;" horiz-adv-x="748" 
d="M88 0v713h597l-6 -70h-519v-643h-72z" />
    <glyph glyph-name="uni0414" unicode="&#x414;" horiz-adv-x="871" 
d="M43 -172v241h67q19 28 31.5 51t19.5 50.5t11 64.5t7 93l22 385h542v-644h85v-241h-72v172h-641v-172h-72zM249 328q-3 -51 -6.5 -87.5t-10 -65t-17.5 -53.5t-29 -53h485v574h-403z" />
    <glyph glyph-name="uni0415" unicode="&#x415;" horiz-adv-x="765" 
d="M88 0v713h597l-6 -70h-519v-252h465l-4 -70h-461v-252h525l-6 -69h-591z" />
    <glyph glyph-name="uni0416" unicode="&#x416;" horiz-adv-x="1100" 
d="M44 0l322 356l-322 357h94l289 -322h89v322h68v-322h88l291 322h93l-320 -357l320 -356h-93l-290 321h-89v-321h-68v321h-90l-288 -321h-94z" />
    <glyph glyph-name="uni0417" unicode="&#x417;" horiz-adv-x="765" 
d="M369 54q42 0 86 3.5t79.5 16t58.5 37.5t23 67q0 40 -19.5 67.5t-52.5 44.5t-77 25t-93 8h-147v67h147q50 0 92 7.5t72 24.5t47 44.5t17 66.5q0 43 -20 67.5t-52.5 37.5t-74 16.5t-83.5 3.5q-58 0 -129 -4.5t-143 -17.5l-6 69q72 10 146 16t133 6q55 0 109 -7.5t96 -28
t68 -57.5t26 -97q0 -77 -44 -119.5t-113 -60.5q77 -17 124.5 -60.5t47.5 -120.5q0 -60 -28 -97t-73 -58t-102 -28t-115 -7q-61 0 -138 5.5t-153 16.5l7 69q75 -14 149.5 -18.5t134.5 -4.5z" />
    <glyph glyph-name="uni0418" unicode="&#x418;" horiz-adv-x="840" 
d="M88 0v713h72v-594l535 594h57v-713h-71v593l-534 -593h-59z" />
    <glyph glyph-name="uni0419" unicode="&#x419;" horiz-adv-x="840" 
d="M88 0v713h72v-594l535 594h57v-713h-71v593l-534 -593h-59zM420 842q53 0 73 16.5t20 51.5h64q0 -69 -39.5 -98.5t-117.5 -29.5t-117.5 29.5t-39.5 98.5h65q0 -35 19.5 -51.5t72.5 -16.5z" />
    <glyph glyph-name="uni041A" unicode="&#x41a;" horiz-adv-x="764" 
d="M88 0v713h72v-322h179l291 322h90l1 -2l-318 -355l316 -351l-1 -6l-78 -10l-300 332h-180v-321h-72z" />
    <glyph glyph-name="uni041B" unicode="&#x41b;" horiz-adv-x="835" 
d="M170 164l23 549h557v-713h-72v643h-416l-22 -479q-2 -53 -13.5 -86.5t-30 -52t-43 -25t-52.5 -6.5q-11 0 -24.5 1.5t-27.5 3.5l5 66q15 -2 21 -2.5t11 -0.5q18 0 32.5 3.5t25 14.5t17 31t8.5 53h1z" />
    <glyph glyph-name="uni041C" unicode="&#x41c;" horiz-adv-x="957" 
d="M799 0v572l-289 -429h-61l-289 429v-572h-72v713h63l328 -491l329 491h61v-713h-70z" />
    <glyph glyph-name="uni041D" unicode="&#x41d;" horiz-adv-x="862" 
d="M88 0v713h72v-322h542v322h72v-713h-72v321h-542v-321h-72z" />
    <glyph glyph-name="uni041E" unicode="&#x41e;" horiz-adv-x="917" 
d="M456 -14q-75 0 -142.5 17t-118.5 59.5t-81 114.5t-30 181q0 106 28.5 176.5t78 113.5t117 61t145.5 18q75 0 142.5 -17t118.5 -59.5t81 -114.5t30 -181q0 -106 -28.5 -177t-78 -113.5t-117 -60.5t-145.5 -18zM456 56q63 0 117 14.5t94 49t63 92t23 143.5q0 89 -24 147
t-65 92.5t-95.5 48.5t-115.5 14q-63 0 -117 -14.5t-94 -49t-63 -92t-23 -143.5q0 -89 24 -147t65 -92.5t95.5 -48.5t115.5 -14z" />
    <glyph glyph-name="uni041F" unicode="&#x41f;" horiz-adv-x="805" 
d="M88 0v713h629v-713h-72v643h-485v-643h-72z" />
    <glyph glyph-name="uni0420" unicode="&#x420;" horiz-adv-x="795" 
d="M88 0v713q46 3 94 5t92 3.5t82 2.5t66 1q68 0 125.5 -8t99.5 -33t65.5 -71.5t23.5 -124.5t-23.5 -124.5t-65.5 -71.5t-99.5 -33t-125.5 -8q-45 0 -115.5 2t-146.5 6v-259h-72zM664 488q0 55 -18.5 88.5t-51 51t-77.5 23t-97 5.5q-44 0 -113.5 -2.5t-146.5 -6.5v-319
q77 -4 146.5 -6t113.5 -2q52 0 97 5.5t77.5 23t51 50.5t18.5 89z" />
    <glyph glyph-name="uni0421" unicode="&#x421;" horiz-adv-x="813" 
d="M735 9q-69 -10 -139 -16t-127 -6q-73 0 -142.5 11.5t-123.5 49.5t-86.5 111.5t-32.5 197.5t32.5 197.5t86.5 111.5t123.5 49.5t142.5 11.5q57 0 127 -6t139 -16l-6 -69q-33 6 -67.5 10.5t-68 7t-64 3.5t-55.5 1q-41 0 -80.5 -3t-75 -13.5t-65.5 -30t-52 -53t-34 -83
t-12 -118.5t12 -118.5t34 -83t52 -53t65.5 -30t75 -13.5t80.5 -3q25 0 55.5 1t64 3.5t68 7t67.5 10.5l6 -69v0z" />
    <glyph glyph-name="uni0422" unicode="&#x422;" horiz-adv-x="771" 
d="M358 0v643h-306v70h674l-6 -70h-291v-643h-71z" />
    <glyph glyph-name="uni0423" unicode="&#x423;" horiz-adv-x="806" 
d="M381 175l-2 -1l-317 539h80l275 -470l248 470h79l-380 -713h-75z" />
    <glyph glyph-name="uni0424" unicode="&#x424;" horiz-adv-x="1025" 
d="M477 0v71q-74 1 -144.5 11t-125.5 40t-89 85.5t-34 148.5t34 148.5t89 85.5t125.5 40t144.5 11v72h70v-72q72 -1 142.5 -11t126 -40t90 -85.5t34.5 -148.5t-34.5 -148.5t-90 -85.5t-126 -40t-142.5 -11v-71h-70zM155 356q0 -72 28 -114.5t73 -64.5t103 -28.5t118 -7.5
v431q-60 -1 -118 -7.5t-103 -29t-73 -65t-28 -114.5zM868 356q0 72 -28 114.5t-73.5 65t-103 29t-116.5 7.5v-431q59 1 116.5 7.5t103 28.5t73.5 64.5t28 114.5z" />
    <glyph glyph-name="uni0425" unicode="&#x425;" horiz-adv-x="770" 
d="M53 0l289 366l-273 347h86l230 -292l231 292h88l-275 -348l289 -365h-86l-246 311l-245 -311h-88z" />
    <glyph glyph-name="uni0426" unicode="&#x426;" horiz-adv-x="840" 
d="M717 713v-644h84v-241h-70v172h-643v713h72v-644h485v644h72z" />
    <glyph glyph-name="uni0427" unicode="&#x427;" horiz-adv-x="762" 
d="M84 713h71v-254q0 -56 19 -93.5t55.5 -60.5t89.5 -33t120 -10q58 0 93.5 5.5t70.5 12.5v433h71v-713h-71v210q-35 -6 -76 -11t-95 -5q-81 0 -145.5 13.5t-109.5 45t-69 81.5t-24 124v255z" />
    <glyph glyph-name="uni0428" unicode="&#x428;" horiz-adv-x="1032" 
d="M944 713v-713h-856v713h72v-644h323v644h68v-644h322v644h71z" />
    <glyph glyph-name="uni0429" unicode="&#x429;" horiz-adv-x="1069" 
d="M944 713v-644h86v-241h-71v172h-871v713h72v-644h323v644h68v-644h322v644h71z" />
    <glyph glyph-name="uni042A" unicode="&#x42a;" horiz-adv-x="940" 
d="M305 713v-280q76 4 146.5 6.5t119.5 2.5q67 0 123.5 -8t98 -32t65 -68.5t23.5 -118.5t-23.5 -119t-65.5 -69t-99.5 -31.5t-124.5 -7.5q-28 0 -66.5 1t-82.5 2.5t-92 3.5t-94 5v643h-171v70h243zM809 215q0 52 -18.5 83.5t-51 48t-77.5 21.5t-97 5q-44 0 -113.5 -2.5
t-146.5 -6.5v-299q77 -4 146.5 -6t113.5 -2q52 0 97 5t77.5 21.5t51 48t18.5 83.5z" />
    <glyph glyph-name="uni042B" unicode="&#x42b;" horiz-adv-x="995" 
d="M160 713v-280q76 4 146.5 6.5t119.5 2.5q67 0 123.5 -8t98 -32t65 -68.5t23.5 -118.5t-23.5 -119t-65.5 -69t-99.5 -31.5t-124.5 -7.5q-28 0 -66.5 1t-82.5 2.5t-92 3.5t-94 5v713h72zM664 215q0 52 -18.5 83.5t-51 48t-77.5 21.5t-97 5q-44 0 -113.5 -2.5t-146.5 -6.5
v-299q77 -4 146.5 -6t113.5 -2q52 0 97 5t77.5 21.5t51 48t18.5 83.5zM835 0v713h72v-713h-72z" />
    <glyph glyph-name="uni042C" unicode="&#x42c;" horiz-adv-x="795" 
d="M160 713v-280q76 4 146.5 6.5t119.5 2.5q67 0 123.5 -8t98 -32t65 -68.5t23.5 -118.5t-23.5 -119t-65.5 -69t-99.5 -31.5t-124.5 -7.5q-28 0 -66.5 1t-82.5 2.5t-92 3.5t-94 5v713h72zM664 215q0 52 -18.5 83.5t-51 48t-77.5 21.5t-97 5q-44 0 -113.5 -2.5t-146.5 -6.5
v-299q77 -4 146.5 -6t113.5 -2q52 0 97 5t77.5 21.5t51 48t18.5 83.5z" />
    <glyph glyph-name="uni042D" unicode="&#x42d;" horiz-adv-x="812" 
d="M83 78q33 -6 67.5 -10.5t68 -7t64 -3.5t55.5 -1q59 0 114 7t99 34t72 80t33 145h-502v68h502q-5 92 -33 145.5t-71.5 80.5t-99 34.5t-114.5 7.5q-25 0 -55.5 -1t-64 -3.5t-68 -7t-67.5 -10.5l-6 69q69 10 139 16t127 6q73 0 142.5 -11.5t123.5 -49.5t86.5 -111.5
t32.5 -197.5t-32.5 -197.5t-86.5 -111.5t-123.5 -49.5t-142.5 -11.5q-57 0 -127 6t-139 16z" />
    <glyph glyph-name="uni042E" unicode="&#x42e;" horiz-adv-x="1138" 
d="M88 0v713h72v-322h174q4 96 33.5 160.5t77.5 103.5t111 55.5t136 16.5t139 -17t115.5 -59.5t78.5 -114.5t29 -181q0 -106 -27.5 -177t-76 -113.5t-114 -60.5t-141.5 -18q-71 0 -134 15.5t-112 54t-79.5 103t-35.5 162.5h-174v-321h-72zM695 56q60 0 112.5 14.5t91.5 49
t61 92t22 143.5q0 89 -23 147t-63 92.5t-92.5 48.5t-111.5 14q-60 0 -112.5 -14.5t-91.5 -49t-61 -92t-22 -143.5q0 -89 23 -147t63 -92.5t92.5 -48.5t111.5 -14z" />
    <glyph glyph-name="uni042F" unicode="&#x42f;" horiz-adv-x="789" 
d="M68 5l158 257q-39 7 -71 22.5t-54.5 42.5t-35 66t-12.5 95q0 78 23.5 124.5t65.5 71.5t99.5 33t125.5 8q28 0 66 -1t82 -2.5t91.5 -3.5t94.5 -5v-713h-72v259q-77 -4 -147 -6t-115 -2h-32.5t-31.5 1l-162 -262l-72 9zM125 488q0 -56 18.5 -89t51 -50.5t77 -23t97.5 -5.5
q44 0 113.5 2t146.5 6v319q-77 4 -146.5 6.5t-113.5 2.5q-53 0 -97.5 -5.5t-77 -23t-51 -51t-18.5 -88.5z" />
    <glyph glyph-name="uni0430" unicode="&#x430;" horiz-adv-x="750" 
d="M111 557q34 6 72.5 10t74 6.5t65.5 4t49 1.5q125 0 196.5 -58t71.5 -177v-203q0 -16 2 -31t7.5 -26t15.5 -18t27 -7q10 0 12 1t2 2l4 -69q-6 -1 -10.5 -1h-9.5q-48 0 -74 21t-37 53q-19 -20 -42 -34.5t-53.5 -25t-69.5 -15.5t-90 -5q-56 0 -102 8t-79 28t-51 55.5
t-18 91.5q0 53 16.5 88.5t47.5 56.5t74 30t96 9q15 0 42.5 -1t62 -2.5t74.5 -3.5t81 -5v4q0 83 -47.5 123t-149.5 42q-20 0 -49.5 -1t-64 -4t-71 -7.5t-69.5 -9.5zM323 55q49 0 86 5t66 14.5t51.5 25t41.5 36.5v5v132q-42 3 -83 5t-77 3.5t-63 2.5t-40 1q-36 0 -65.5 -5.5
t-50 -19t-32 -36t-11.5 -56.5q0 -36 13 -58.5t36.5 -34.5t56 -16t71.5 -4z" />
    <glyph glyph-name="uni0431" unicode="&#x431;" horiz-adv-x="716" 
d="M357 782q45 0 105.5 4.5t120.5 17.5l6 -68q-63 -11 -123 -17t-109 -6q-99 0 -155 -56t-56 -172v-25q38 62 100.5 90.5t140.5 28.5q48 0 93.5 -12.5t80.5 -44.5t56 -86.5t21 -138.5q0 -87 -23 -146.5t-63.5 -96t-95 -52.5t-116.5 -16q-54 0 -102.5 13t-84.5 46.5t-57.5 91
t-21.5 146.5v202q0 81 22.5 137.5t61 92t90 51.5t109.5 16zM342 54q46 0 87 12t72 40.5t48.5 75.5t17.5 116q0 65 -15.5 106t-41.5 64.5t-59.5 32.5t-70.5 9q-48 0 -90.5 -12.5t-74.5 -41t-50.5 -75t-18.5 -115.5q0 -65 17 -106t44.5 -64.5t63 -32.5t71.5 -9z" />
    <glyph glyph-name="uni0432" unicode="&#x432;" horiz-adv-x="690" 
d="M78 564q37 3 76 5.5t76 4t69.5 2.5t56.5 1q45 0 89.5 -5t80.5 -21.5t58.5 -47t22.5 -81.5q0 -57 -29 -89t-78 -46q58 -14 91.5 -47t33.5 -93q0 -53 -25 -84t-64.5 -48t-87.5 -22t-93 -5q-22 0 -53.5 0.5t-68.5 2t-77 4t-78 5.5v564zM374 56q25 0 56 1.5t58.5 10.5
t46 27.5t18.5 53.5q0 29 -14 48.5t-38.5 31.5t-57.5 17t-70 5h-224v-188q67 -5 126 -6t99 -1zM384 508q-60 0 -118 -1.5t-117 -6.5v-180h215q38 0 70 4.5t55 16t35.5 30t12.5 46.5q0 34 -17 52.5t-41 27t-50.5 10t-44.5 1.5z" />
    <glyph glyph-name="uni0433" unicode="&#x433;" horiz-adv-x="541" 
d="M78 0v564h420l-6 -67h-343v-497h-71z" />
    <glyph glyph-name="uni0434" unicode="&#x434;" horiz-adv-x="727" 
d="M29 -172v241h49q24 36 36.5 61.5t19.5 55t11 68t9 100.5l20 210h438v-495h86v-241h-71v172h-526v-172h-72zM226 354q-5 -57 -8.5 -95.5t-10 -68.5t-19 -57.5t-33.5 -63.5h386v428h-302z" />
    <glyph glyph-name="uni0435" unicode="&#x435;" horiz-adv-x="739" 
d="M385 -14q-69 0 -126.5 16t-98.5 52t-63.5 93.5t-22.5 139.5q0 88 25 144.5t67 89.5t97.5 45.5t117.5 12.5q66 0 119 -14t90 -48.5t56.5 -91.5t19.5 -142v-34h-519q10 -104 72.5 -149.5t171.5 -45.5q16 0 44.5 1t63 3.5t72 7t71.5 11.5l5 -69q-35 -5 -72.5 -9t-72 -7
t-65 -4.5t-52.5 -1.5zM379 507q-43 0 -83 -7t-72 -28t-52.5 -58.5t-24.5 -97.5h447q-3 56 -19 93t-43 58.5t-65.5 30.5t-87.5 9z" />
    <glyph glyph-name="uni0436" unicode="&#x436;" horiz-adv-x="976" 
d="M49 0l254 282l-254 282h91l222 -248h90v248h72v-248h89l224 248h90l-254 -282l254 -282h-90l-224 249h-89v-249h-72v249h-90l-222 -249h-91z" />
    <glyph glyph-name="uni0437" unicode="&#x437;" horiz-adv-x="642" 
d="M332 53q21 0 49 1.5t53.5 10t43 27t17.5 51.5q0 29 -14 49.5t-38.5 33.5t-57.5 19t-70 6h-137v69h128q37 0 68.5 5t54.5 17t36.5 31.5t13.5 48.5q0 33 -16 51t-41.5 26t-56 9.5t-60.5 1.5q-43 0 -103 -4.5t-120 -18.5l-7 70q62 10 123 16t115 6q40 0 82 -5t76.5 -21.5
t56 -46.5t21.5 -79q0 -60 -31 -93t-82 -48q60 -15 95.5 -50t35.5 -96q0 -51 -24 -81t-61 -46.5t-80.5 -21.5t-83.5 -5q-52 0 -113.5 5.5t-122.5 16.5l4 69q67 -14 129 -18.5t117 -5.5z" />
    <glyph glyph-name="uni0438" unicode="&#x438;" horiz-adv-x="685" 
d="M78 0v564h71v-445l402 445h56v-564h-71v444l-401 -444h-57z" />
    <glyph glyph-name="uni0439" unicode="&#x439;" horiz-adv-x="685" 
d="M78 0v564h71v-445l402 445h56v-564h-71v444l-401 -444h-57zM342 694q53 0 73 16.5t20 51.5h64q0 -69 -39.5 -98.5t-117.5 -29.5t-117.5 29.5t-39.5 98.5h65q0 -35 19.5 -51.5t72.5 -16.5z" />
    <glyph glyph-name="uni043A" unicode="&#x43a;" horiz-adv-x="618" 
d="M78 0v564h71v-248h125l223 248h92l-254 -282l254 -282h-92l-223 249h-125v-249h-71z" />
    <glyph glyph-name="uni043B" unicode="&#x43b;" horiz-adv-x="720" 
d="M571 0v497h-329l-15 -333q-2 -53 -13.5 -86.5t-30 -52t-43 -25t-52.5 -6.5q-11 0 -24.5 1.5t-27.5 3.5l5 66q15 -2 21 -2.5t11 -0.5q18 0 32.5 3.5t25 14.5t17 31t8.5 53l17 400h469v-564h-71z" />
    <glyph glyph-name="uni043C" unicode="&#x43c;" horiz-adv-x="809" 
d="M659 0v426l-224 -326h-61l-225 326v-426h-71v564h62l264 -388l265 388h62v-564h-72z" />
    <glyph glyph-name="uni043D" unicode="&#x43d;" horiz-adv-x="705" 
d="M78 0v564h71v-248h407v248h71v-564h-71v249h-407v-249h-71z" />
    <glyph glyph-name="uni043E" unicode="&#x43e;" horiz-adv-x="741" 
d="M371 -15q-60 0 -114 14t-94.5 48t-64.5 91.5t-24 144.5q0 85 22.5 141.5t62.5 91t94 49t116 14.5q60 0 114.5 -14t95 -48t64.5 -91.5t24 -144.5q0 -85 -23 -141.5t-62.5 -91t-93.5 -49t-117 -14.5zM371 55q47 0 88 11t71 37t47.5 69.5t17.5 108.5q0 67 -18 111t-49 70
t-72 36.5t-87 10.5q-47 0 -87.5 -11t-70.5 -37t-47.5 -69.5t-17.5 -108.5q0 -67 18 -111t49 -70t72 -36.5t86 -10.5z" />
    <glyph glyph-name="uni043F" unicode="&#x43f;" horiz-adv-x="677" 
d="M78 0v564h521v-564h-72v497h-378v-497h-71z" />
    <glyph glyph-name="uni0440" unicode="&#x440;" horiz-adv-x="718" 
d="M78 -220v777q39 5 79 9t77.5 7t69.5 4.5t56 1.5q61 0 113.5 -13t90.5 -45.5t59.5 -88t21.5 -141.5q0 -85 -21.5 -143.5t-59 -94.5t-88 -51.5t-109.5 -15.5q-42 0 -99.5 6t-118.5 17v-229h-71zM360 54q46 0 85.5 11.5t68 39t44.5 73t16 113.5t-16 111t-45.5 67t-70 32.5
t-88.5 8.5q-31 0 -86.5 -3t-118.5 -11v-419q31 -6 62 -10.5t58.5 -7.5t51 -4t39.5 -1z" />
    <glyph glyph-name="uni0441" unicode="&#x441;" horiz-adv-x="672" 
d="M374 54q45 0 105 4.5t120 18.5l5 -69q-61 -11 -122.5 -16.5t-112.5 -5.5q-61 0 -115 17t-94 53t-63 92t-23 135q0 89 23 146.5t63 90.5t94 46t115 13q51 0 112.5 -6t122.5 -16l-5 -70q-60 14 -120 18.5t-105 4.5q-48 0 -89.5 -9t-72 -34t-48.5 -69.5t-18 -114.5
q0 -61 18 -104.5t48.5 -71t72 -40.5t89.5 -13z" />
    <glyph glyph-name="uni0442" unicode="&#x442;" horiz-adv-x="645" 
d="M291 0v497h-249v67h562l-8 -67h-233v-497h-72z" />
    <glyph glyph-name="uni0443" unicode="&#x443;" horiz-adv-x="730" 
d="M338 24l-290 540h81l247 -464l230 464h75l-389 -784h-75z" />
    <glyph glyph-name="uni0444" unicode="&#x444;" horiz-adv-x="998" 
d="M534 770v-192q102 -3 175.5 -21t121.5 -54t70.5 -90.5t22.5 -129.5q0 -76 -22.5 -130.5t-70.5 -90.5t-121.5 -54t-175.5 -21v-193h-71v193q-102 3 -176 21t-121 54t-69.5 90.5t-22.5 130.5q0 75 22.5 129.5t69.5 90.5t121 54t176 21v192h71zM852 283q0 57 -18 98.5
t-56 69t-98.5 42t-145.5 16.5v-455q85 3 145.5 17.5t98.5 42t56 69.5t18 100zM146 283q0 -58 17.5 -100t56 -70t98.5 -42.5t145 -16.5v455q-85 -2 -145 -16.5t-98.5 -42t-56 -69t-17.5 -98.5z" />
    <glyph glyph-name="uni0445" unicode="&#x445;" horiz-adv-x="625" 
d="M49 0l218 282l-218 282h88l174 -226l174 226h87l-218 -282l218 -282h-87l-174 225l-174 -225h-88z" />
    <glyph glyph-name="uni0446" unicode="&#x446;" horiz-adv-x="715" 
d="M613 -172v172h-535v564h71v-495h378v495h72v-495h84v-241h-70z" />
    <glyph glyph-name="uni0447" unicode="&#x447;" horiz-adv-x="678" 
d="M527 224q-32 -8 -88 -16t-144 -8q-217 0 -217 221v143h72v-143q0 -75 35 -114t106 -39q85 0 143.5 9.5t92.5 19.5v267h71v-564l-71 1v223z" />
    <glyph glyph-name="uni0448" unicode="&#x448;" horiz-adv-x="955" 
d="M877 564v-564h-799v564h71v-495h292v495h72v-495h292v495h72z" />
    <glyph glyph-name="uni0449" unicode="&#x449;" horiz-adv-x="994" 
d="M877 564v-495h85v-241h-71v172h-813v564h71v-495h292v495h72v-495h292v495h72z" />
    <glyph glyph-name="uni044A" unicode="&#x44a;" horiz-adv-x="799" 
d="M52 564h242v-216q31 3 61 5t57 3.5t50 2t39 0.5q52 0 95.5 -9.5t75.5 -31.5t50 -58.5t18 -90.5q0 -55 -18.5 -90t-51.5 -54.5t-78.5 -27t-99.5 -7.5q-17 0 -46.5 0.5t-66 2t-77 4t-79.5 5.5v495h-171v67zM497 290q-13 0 -34.5 -0.5t-48.5 -2t-58 -3t-62 -4.5v-214
q63 -5 117.5 -6.5t82.5 -1.5q39 0 71 4t55 16t36 33.5t13 56.5q0 34 -12.5 57.5t-35 38t-54.5 20.5t-70 6z" />
    <glyph glyph-name="uni044B" unicode="&#x44b;" horiz-adv-x="826" 
d="M149 348q31 3 61 5t57 3.5t50 2t39 0.5q52 0 95.5 -9.5t75.5 -31.5t50 -58.5t18 -90.5q0 -55 -18.5 -90t-51.5 -54.5t-78.5 -27t-99.5 -7.5q-17 0 -46.5 0.5t-66 2t-77 4t-79.5 5.5v562h71v-216zM352 290q-13 0 -34.5 -0.5t-48.5 -2t-58 -3t-62 -4.5v-214
q63 -5 117.5 -6.5t82.5 -1.5q39 0 71 4t55 16t36 33.5t13 56.5q0 34 -12.5 57.5t-35 38t-54.5 20.5t-70 6zM748 564v-564h-71v564h71z" />
    <glyph glyph-name="uni044C" unicode="&#x44c;" horiz-adv-x="654" 
d="M149 348q31 3 61 5t57 3.5t50 2t39 0.5q52 0 95.5 -9.5t75.5 -31.5t50 -58.5t18 -90.5q0 -55 -18.5 -90t-51.5 -54.5t-78.5 -27t-99.5 -7.5q-17 0 -46.5 0.5t-66 2t-77 4t-79.5 5.5v562h71v-216zM352 290q-13 0 -34.5 -0.5t-48.5 -2t-58 -3t-62 -4.5v-214
q63 -5 117.5 -6.5t82.5 -1.5q39 0 71 4t55 16t36 33.5t13 56.5q0 34 -12.5 57.5t-35 38t-54.5 20.5t-70 6z" />
    <glyph glyph-name="uni044D" unicode="&#x44d;" horiz-adv-x="679" 
d="M305 54q44 0 83 11t69.5 34.5t50 60.5t24.5 89h-401v67h402q-5 60 -24 97.5t-49.5 59t-70 29.5t-84.5 8t-105 -4.5t-120 -18.5l-7 70q62 10 123.5 16t112.5 6q61 0 115 -13t94.5 -46t63.5 -90.5t23 -146.5q0 -79 -23 -135t-63.5 -92t-94.5 -53t-115 -17q-51 0 -112.5 5.5
t-123.5 16.5l7 69q60 -14 120 -18.5t105 -4.5z" />
    <glyph glyph-name="uni044E" unicode="&#x44e;" horiz-adv-x="904" 
d="M78 0v564h71v-248h106q4 75 28 125t61.5 81t87.5 44t107 13q58 0 110.5 -14t92 -48t62.5 -91.5t23 -144.5q0 -85 -22 -141.5t-60.5 -91t-91 -49t-112.5 -14.5q-55 0 -105 12.5t-88.5 42.5t-63.5 81t-29 128h-106v-249h-71zM541 55q45 0 84 11t68 37t45.5 69.5t16.5 108.5
q0 67 -17.5 111t-47 70t-68.5 36.5t-83 10.5q-45 0 -83.5 -11t-67.5 -37t-45.5 -69.5t-16.5 -108.5q0 -67 17.5 -111t46.5 -70t68 -36.5t83 -10.5z" />
    <glyph glyph-name="uni044F" unicode="&#x44f;" horiz-adv-x="640" 
d="M55 0l171 190q-39 6 -70.5 19.5t-54 37t-34.5 57.5t-12 81q0 56 17.5 92.5t50 57.5t78.5 29t102 8q16 0 45.5 -0.5t66.5 -2t77.5 -3t79.5 -4.5v-562h-71v193q-54 -3 -103.5 -5.5t-82.5 -2.5l-166 -185h-94zM303 254q10 0 30.5 0.5t47.5 1.5t57.5 2.5t62.5 3.5v235
q-31 2 -61 3.5t-56.5 2t-48 1t-34.5 0.5q-39 0 -71 -4.5t-55.5 -17t-36 -36t-12.5 -61.5t12.5 -63.5t36 -40.5t56 -21t72.5 -6z" />
    <glyph glyph-name="uni0450" unicode="&#x450;" horiz-adv-x="739" 
d="M385 -14q-69 0 -126.5 16t-98.5 52t-63.5 93.5t-22.5 139.5q0 88 25 144.5t67 89.5t97.5 45.5t117.5 12.5q66 0 119 -14t90 -48.5t56.5 -91.5t19.5 -142v-34h-519q10 -104 72.5 -149.5t171.5 -45.5q16 0 44.5 1t63 3.5t72 7t71.5 11.5l5 -69q-35 -5 -72.5 -9t-72 -7
t-65 -4.5t-52.5 -1.5zM379 507q-43 0 -83 -7t-72 -28t-52.5 -58.5t-24.5 -97.5h447q-3 56 -19 93t-43 58.5t-65.5 30.5t-87.5 9zM363 636l-160 96l40 58l146 -114z" />
    <glyph glyph-name="uni0451" unicode="&#x451;" horiz-adv-x="739" 
d="M385 -14q-69 0 -126.5 16t-98.5 52t-63.5 93.5t-22.5 139.5q0 88 25 144.5t67 89.5t97.5 45.5t117.5 12.5q66 0 119 -14t90 -48.5t56.5 -91.5t19.5 -142v-34h-519q10 -104 72.5 -149.5t171.5 -45.5q16 0 44.5 1t63 3.5t72 7t71.5 11.5l5 -69q-35 -5 -72.5 -9t-72 -7
t-65 -4.5t-52.5 -1.5zM379 507q-43 0 -83 -7t-72 -28t-52.5 -58.5t-24.5 -97.5h447q-3 56 -19 93t-43 58.5t-65.5 30.5t-87.5 9zM189 669v81h72v-81h-72zM474 669v81h72v-81h-72z" />
    <glyph glyph-name="uni0452" unicode="&#x452;" horiz-adv-x="727" 
d="M82 0v646h-72v67h72v67l71 2v-69h194v-67h-194v-92q61 11 118.5 18t99.5 7q59 0 109.5 -16t88 -52t59 -94.5t21.5 -143.5v-273q0 -54 -11.5 -87t-33 -51t-52 -24.5t-68.5 -6.5q-19 0 -43.5 3t-57.5 11l5 69q30 -8 61.5 -10.5t45.5 -2.5q17 0 32 3.5t26 14.5t17.5 30
t6.5 51v273q0 68 -16 113.5t-44.5 73t-67.5 39t-85 11.5q-16 0 -39.5 -1.5t-51 -4t-58.5 -7t-62 -10.5v-487h-71z" />
    <glyph glyph-name="uni0453" unicode="&#x453;" horiz-adv-x="551" 
d="M78 0v564h420l-6 -67h-343v-497h-71zM193 676l146 114l40 -58l-160 -96z" />
    <glyph glyph-name="uni0454" unicode="&#x454;" horiz-adv-x="677" 
d="M374 54q45 0 105 4.5t120 18.5l5 -69q-61 -11 -122.5 -16.5t-112.5 -5.5q-61 0 -115 17t-94 53t-63 92t-23 135q0 89 23 146.5t63 90.5t94 46t115 13q51 0 112.5 -6t122.5 -16l-5 -70q-60 14 -120 18.5t-105 4.5t-84.5 -8t-70 -29.5t-49.5 -59.5t-23 -98h400v-65h-400
q5 -52 24.5 -89t49.5 -61t69.5 -35t83.5 -11z" />
    <glyph glyph-name="uni0455" unicode="&#x455;" horiz-adv-x="637" 
d="M307 54q35 0 68.5 3.5t59 14t41 29.5t15.5 50q0 30 -14.5 47t-39 26.5t-57 15t-69.5 11.5q-57 8 -101.5 18t-75.5 27t-47 44t-16 71q0 51 20.5 84t54 51.5t77.5 25.5t91 7q49 0 110.5 -6t123.5 -16l-5 -70q-30 7 -61 11.5t-60.5 7t-56 3.5t-48.5 1q-37 0 -69 -4
t-55 -14.5t-36.5 -28.5t-13.5 -47q0 -33 16.5 -50.5t42 -26t56 -12t57.5 -7.5q52 -9 97.5 -18.5t79 -26.5t52.5 -46t19 -75q0 -52 -22.5 -85t-59 -51.5t-82.5 -25t-92 -6.5q-48 0 -108.5 5.5t-123.5 16.5l6 69q60 -14 120.5 -18.5t105.5 -4.5z" />
    <glyph glyph-name="uni0456" unicode="&#x456;" horiz-adv-x="227" 
d="M149 564v-564h-71v564h71zM78 672v106l71 4v-110h-71z" />
    <glyph glyph-name="uni0457" unicode="&#x457;" horiz-adv-x="227" 
d="M5 649v91h71v-91h-71zM149 564v-564h-72v564h72zM148 649v91h72v-91h-72z" />
    <glyph glyph-name="uni0458" unicode="&#x458;" horiz-adv-x="227" 
d="M149 -121q0 -54 -8.5 -87t-23.5 -51.5t-35 -24.5t-42 -6q-17 0 -40 2t-46 5l7 68q15 -2 35 -4t30 -2t19.5 3.5t17 14t11.5 30.5t4 52v685h71v-685zM78 672v106l71 4v-110h-71z" />
    <glyph glyph-name="uni0459" unicode="&#x459;" horiz-adv-x="982" 
d="M173 564h377v-215q51 5 98.5 7.5t74.5 2.5q45 0 83.5 -9.5t66.5 -31.5t43.5 -58.5t15.5 -90.5q0 -55 -16 -90t-45 -54.5t-69 -27t-88 -7.5q-14 0 -39.5 0.5t-57.5 2t-68 4t-70 5.5v495h-237l-15 -333q-2 -53 -13.5 -86.5t-30 -52t-43 -25t-52.5 -6.5q-11 0 -24.5 2
t-27.5 3l5 66q11 -2 19 -2.5t13 -0.5q18 0 32.5 3.5t25 14.5t17 31t8.5 53zM719 290q-10 0 -28 -0.5t-40.5 -2t-48.5 -3t-52 -4.5v-215q53 -4 98.5 -5.5t67.5 -1.5q32 0 59 4t46 16t29.5 33.5t10.5 56.5q0 34 -10.5 57.5t-29 38t-45 20.5t-57.5 6z" />
    <glyph glyph-name="uni045A" unicode="&#x45a;" horiz-adv-x="989" 
d="M78 0v564h71v-248h336v248h71v-215q50 5 95.5 7.5t71.5 2.5q45 0 83.5 -9.5t66.5 -31.5t43.5 -58.5t15.5 -90.5q0 -55 -16 -90t-45 -54.5t-69 -27t-88 -7.5q-14 0 -39 0.5t-56.5 2t-66 4t-67.5 5.5v247h-336v-249h-71zM719 290q-10 0 -27 -0.5t-39 -1.5t-47 -3l-50 -4
v-216q51 -4 94.5 -5.5t65.5 -1.5q32 0 59 4t46 16t29.5 33.5t10.5 56.5q0 34 -10.5 57.5t-29 38t-45 20.5t-57.5 6z" />
    <glyph glyph-name="uni045B" unicode="&#x45b;" horiz-adv-x="723" 
d="M79 0v646h-72v67h72v65l71 4v-69h194v-67h-194v-92q61 11 118.5 18t99.5 7q59 0 109.5 -16t88 -52t59 -94.5t21.5 -143.5v-273h-71v273q0 68 -16 113.5t-44.5 73t-68 39t-85.5 11.5q-16 0 -39.5 -1.5t-51 -4t-58.5 -7t-62 -10.5v-487h-71z" />
    <glyph glyph-name="uni045C" unicode="&#x45c;" horiz-adv-x="618" 
d="M78 0v564h71v-248h125l223 248h92l-254 -282l254 -282h-92l-223 249h-125v-249h-71zM218 676l146 114l40 -58l-160 -96z" />
    <glyph glyph-name="uni045D" unicode="&#x45d;" horiz-adv-x="685" 
d="M78 0v564h71v-445l402 445h56v-564h-71v444l-401 -444h-57zM362 636l-160 96l40 58l146 -114z" />
    <glyph glyph-name="uni045E" unicode="&#x45e;" horiz-adv-x="730" 
d="M338 24l-290 540h81l247 -464l230 464h75l-389 -784h-75zM361 694q53 0 73 16.5t20 51.5h64q0 -69 -39.5 -98.5t-117.5 -29.5t-117.5 29.5t-39.5 98.5h65q0 -35 19.5 -51.5t72.5 -16.5z" />
    <glyph glyph-name="uni045F" unicode="&#x45f;" horiz-adv-x="677" 
d="M599 564v-564h-224v-230h-71v230h-226v564h71v-497h378v497h72z" />
    <glyph glyph-name="uni0462" unicode="&#x462;" horiz-adv-x="913" 
d="M278 643v-210q76 4 146.5 6.5t119.5 2.5q67 0 123.5 -8t98 -32t65 -68.5t23.5 -118.5t-23.5 -119t-65.5 -69t-99.5 -31.5t-124.5 -7.5q-28 0 -66.5 1t-82.5 2.5t-92 3.5t-94 5v643h-205v70h674l-6 -70h-391zM782 215q0 52 -18.5 83.5t-51 48t-77.5 21.5t-97 5
q-44 0 -113.5 -2.5t-146.5 -6.5v-299q77 -4 146.5 -6t113.5 -2q52 0 97 5t77.5 21.5t51 48t18.5 83.5z" />
    <glyph glyph-name="uni0463" unicode="&#x463;" horiz-adv-x="654" 
d="M78 564v214l71 4v-218h195v-67h-195v-149q31 3 61 5t57 3.5t50 2t39 0.5q52 0 95.5 -9.5t75.5 -31.5t50 -58.5t18 -90.5q0 -55 -18.5 -90t-51.5 -54.5t-78.5 -27t-99.5 -7.5q-16 0 -42.5 0.5t-59.5 2t-70 3t-74 4.5h-23v497h-71v67h71zM352 290q-13 0 -34.5 -0.5
t-48.5 -2t-58 -3t-62 -4.5v-214q63 -5 117.5 -6.5t82.5 -1.5q39 0 71 4t55 16t36 33.5t13 56.5q0 34 -12.5 57.5t-35 38t-54.5 20.5t-70 6z" />
    <glyph glyph-name="uni0490" unicode="&#x490;" horiz-adv-x="748" 
d="M88 0v713h525v167l72 4v-241h-525v-643h-72z" />
    <glyph glyph-name="uni0491" unicode="&#x491;" horiz-adv-x="541" 
d="M149 497v-497h-71v564h349v168l71 4v-239h-349z" />
    <glyph glyph-name="uni04AE" unicode="&#x4ae;" horiz-adv-x="849" 
d="M145 713l279 -327l281 327h89l-334 -388v-325h-70v325l-334 388h89z" />
    <glyph glyph-name="uni04AF" unicode="&#x4af;" horiz-adv-x="731" 
d="M604 564h78l-281 -554v-241h-71v242l-282 553h78l240 -479z" />
    <glyph glyph-name="uni04C1" unicode="&#x4c1;" horiz-adv-x="1100" 
d="M44 0l322 356l-322 357h94l289 -322h89v322h68v-322h88l291 322h93l-320 -357l320 -356h-93l-290 321h-89v-321h-68v321h-90l-288 -321h-94zM550 844q53 0 73 16.5t20 51.5h64q0 -69 -39.5 -98.5t-117.5 -29.5t-117.5 29.5t-39.5 98.5h65q0 -35 19.5 -51.5t72.5 -16.5z
" />
    <glyph glyph-name="uni04C2" unicode="&#x4c2;" horiz-adv-x="976" 
d="M49 0l254 282l-254 282h91l222 -248h90v248h72v-248h89l224 248h90l-254 -282l254 -282h-90l-224 249h-89v-249h-72v249h-90l-222 -249h-91zM488 694q53 0 73 16.5t20 51.5h64q0 -69 -39.5 -98.5t-117.5 -29.5t-117.5 29.5t-39.5 98.5h65q0 -35 19.5 -51.5t72.5 -16.5z
" />
    <glyph glyph-name="uni04D0" unicode="&#x4d0;" horiz-adv-x="907" 
d="M685 165h-463l-84 -165h-80l366 713h60l366 -713h-80zM254 228h399l-199 391zM453 844q53 0 73 16.5t20 51.5h64q0 -69 -39.5 -98.5t-117.5 -29.5t-117.5 29.5t-39.5 98.5h65q0 -35 19.5 -51.5t72.5 -16.5z" />
    <glyph glyph-name="uni04D1" unicode="&#x4d1;" horiz-adv-x="750" 
d="M111 557q34 6 72.5 10t74 6.5t65.5 4t49 1.5q125 0 196.5 -58t71.5 -177v-203q0 -16 2 -31t7.5 -26t15.5 -18t27 -7q10 0 12 1t2 2l4 -69q-6 -1 -10.5 -1h-9.5q-48 0 -74 21t-37 53q-19 -20 -42 -34.5t-53.5 -25t-69.5 -15.5t-90 -5q-56 0 -102 8t-79 28t-51 55.5
t-18 91.5q0 53 16.5 88.5t47.5 56.5t74 30t96 9q15 0 42.5 -1t62 -2.5t74.5 -3.5t81 -5v4q0 83 -47.5 123t-149.5 42q-20 0 -49.5 -1t-64 -4t-71 -7.5t-69.5 -9.5zM323 55q49 0 86 5t66 14.5t51.5 25t41.5 36.5v5v132q-42 3 -83 5t-77 3.5t-63 2.5t-40 1q-36 0 -65.5 -5.5
t-50 -19t-32 -36t-11.5 -56.5q0 -36 13 -58.5t36.5 -34.5t56 -16t71.5 -4zM359 694q53 0 73 16.5t20 51.5h64q0 -69 -39.5 -98.5t-117.5 -29.5t-117.5 29.5t-39.5 98.5h65q0 -35 19.5 -51.5t72.5 -16.5z" />
    <glyph glyph-name="uni04D2" unicode="&#x4d2;" horiz-adv-x="907" 
d="M685 165h-463l-84 -165h-80l366 713h60l366 -713h-80zM254 228h399l-199 391zM275 819v81h72v-81h-72zM560 819v81h72v-81h-72z" />
    <glyph glyph-name="uni04D3" unicode="&#x4d3;" horiz-adv-x="750" 
d="M111 557q34 6 72.5 10t74 6.5t65.5 4t49 1.5q125 0 196.5 -58t71.5 -177v-203q0 -16 2 -31t7.5 -26t15.5 -18t27 -7q10 0 12 1t2 2l4 -69q-6 -1 -10.5 -1h-9.5q-48 0 -74 21t-37 53q-19 -20 -42 -34.5t-53.5 -25t-69.5 -15.5t-90 -5q-56 0 -102 8t-79 28t-51 55.5
t-18 91.5q0 53 16.5 88.5t47.5 56.5t74 30t96 9q15 0 42.5 -1t62 -2.5t74.5 -3.5t81 -5v4q0 83 -47.5 123t-149.5 42q-20 0 -49.5 -1t-64 -4t-71 -7.5t-69.5 -9.5zM323 55q49 0 86 5t66 14.5t51.5 25t41.5 36.5v5v132q-42 3 -83 5t-77 3.5t-63 2.5t-40 1q-36 0 -65.5 -5.5
t-50 -19t-32 -36t-11.5 -56.5q0 -36 13 -58.5t36.5 -34.5t56 -16t71.5 -4zM181 669v81h72v-81h-72zM466 669v81h72v-81h-72z" />
    <glyph glyph-name="uni04D6" unicode="&#x4d6;" horiz-adv-x="765" 
d="M88 0v713h597l-6 -70h-519v-252h465l-4 -70h-461v-252h525l-6 -69h-591zM382 844q53 0 73 16.5t20 51.5h64q0 -69 -39.5 -98.5t-117.5 -29.5t-117.5 29.5t-39.5 98.5h65q0 -35 19.5 -51.5t72.5 -16.5z" />
    <glyph glyph-name="uni04D7" unicode="&#x4d7;" horiz-adv-x="739" 
d="M385 -14q-69 0 -126.5 16t-98.5 52t-63.5 93.5t-22.5 139.5q0 88 25 144.5t67 89.5t97.5 45.5t117.5 12.5q66 0 119 -14t90 -48.5t56.5 -91.5t19.5 -142v-34h-519q10 -104 72.5 -149.5t171.5 -45.5q16 0 44.5 1t63 3.5t72 7t71.5 11.5l5 -69q-35 -5 -72.5 -9t-72 -7
t-65 -4.5t-52.5 -1.5zM379 507q-43 0 -83 -7t-72 -28t-52.5 -58.5t-24.5 -97.5h447q-3 56 -19 93t-43 58.5t-65.5 30.5t-87.5 9zM369 694q53 0 73 16.5t20 51.5h64q0 -69 -39.5 -98.5t-117.5 -29.5t-117.5 29.5t-39.5 98.5h65q0 -35 19.5 -51.5t72.5 -16.5z" />
    <glyph glyph-name="uni04D9" unicode="&#x4d9;" horiz-adv-x="741" 
d="M356 579q69 0 126.5 -16t98.5 -52t63.5 -93.5t22.5 -139.5q0 -88 -25 -144.5t-67 -89.5t-98 -45.5t-117 -12.5q-66 0 -119 14t-90 48.5t-56.5 91t-19.5 142.5v34h518q-10 104 -72.5 149.5t-170.5 45.5q-16 0 -44.5 -1t-63 -3.5t-72 -7t-71.5 -11.5l-5 69q35 5 72.5 9
t72 7t65 4.5t52.5 1.5zM362 58q43 0 83 7t71.5 28t52.5 58.5t25 97.5h-447q3 -57 19 -93.5t43 -58.5t65.5 -30.5t87.5 -8.5z" />
    <glyph glyph-name="uni04DB" unicode="&#x4db;" horiz-adv-x="741" 
d="M356 579q69 0 126.5 -16t98.5 -52t63.5 -93.5t22.5 -139.5q0 -88 -25 -144.5t-67 -89.5t-98 -45.5t-117 -12.5q-66 0 -119 14t-90 48.5t-56.5 91t-19.5 142.5v34h518q-10 104 -72.5 149.5t-170.5 45.5q-16 0 -44.5 -1t-63 -3.5t-72 -7t-71.5 -11.5l-5 69q35 5 72.5 9
t72 7t65 4.5t52.5 1.5zM362 58q43 0 83 7t71.5 28t52.5 58.5t25 97.5h-447q3 -57 19 -93.5t43 -58.5t65.5 -30.5t87.5 -8.5zM192 669v81h72v-81h-72zM477 669v81h72v-81h-72z" />
    <glyph glyph-name="uni04DC" unicode="&#x4dc;" horiz-adv-x="1100" 
d="M44 0l322 356l-322 357h94l289 -322h89v322h68v-322h88l291 322h93l-320 -357l320 -356h-93l-290 321h-89v-321h-68v321h-90l-288 -321h-94zM372 819v81h72v-81h-72zM657 819v81h72v-81h-72z" />
    <glyph glyph-name="uni04DD" unicode="&#x4dd;" horiz-adv-x="976" 
d="M49 0l254 282l-254 282h91l222 -248h90v248h72v-248h89l224 248h90l-254 -282l254 -282h-90l-224 249h-89v-249h-72v249h-90l-222 -249h-91zM310 669v81h72v-81h-72zM595 669v81h72v-81h-72z" />
    <glyph glyph-name="uni04DE" unicode="&#x4de;" horiz-adv-x="775" 
d="M369 54q42 0 86 3.5t79.5 16t58.5 37.5t23 67q0 40 -19.5 67.5t-52.5 44.5t-77 25t-93 8h-147v67h147q50 0 92 7.5t72 24.5t47 44.5t17 66.5q0 43 -20 67.5t-52.5 37.5t-74 16.5t-83.5 3.5q-58 0 -129 -4.5t-143 -17.5l-6 69q72 10 146 16t133 6q55 0 109 -7.5t96 -28
t68 -57.5t26 -97q0 -77 -44 -119.5t-113 -60.5q77 -17 124.5 -60.5t47.5 -120.5q0 -60 -28 -97t-73 -58t-102 -28t-115 -7q-61 0 -138 5.5t-153 16.5l7 69q75 -14 149.5 -18.5t134.5 -4.5zM209 819v81h72v-81h-72zM494 819v81h72v-81h-72z" />
    <glyph glyph-name="uni04DF" unicode="&#x4df;" horiz-adv-x="642" 
d="M332 53q21 0 49 1.5t53.5 10t43 27t17.5 51.5q0 29 -14 49.5t-38.5 33.5t-57.5 19t-70 6h-137v69h128q37 0 68.5 5t54.5 17t36.5 31.5t13.5 48.5q0 33 -16 51t-41.5 26t-56 9.5t-60.5 1.5q-43 0 -103 -4.5t-120 -18.5l-7 70q62 10 123 16t115 6q40 0 82 -5t76.5 -21.5
t56 -46.5t21.5 -79q0 -60 -31 -93t-82 -48q60 -15 95.5 -50t35.5 -96q0 -51 -24 -81t-61 -46.5t-80.5 -21.5t-83.5 -5q-52 0 -113.5 5.5t-122.5 16.5l4 69q67 -14 129 -18.5t117 -5.5zM143 669v81h72v-81h-72zM428 669v81h72v-81h-72z" />
    <glyph glyph-name="uni04E2" unicode="&#x4e2;" horiz-adv-x="840" 
d="M88 0v713h72v-594l535 594h57v-713h-71v593l-534 -593h-59zM225 828v60h390v-60h-390z" />
    <glyph glyph-name="uni04E3" unicode="&#x4e3;" horiz-adv-x="685" 
d="M78 0v564h71v-445l402 445h56v-564h-71v444l-401 -444h-57zM147 678v60h390v-60h-390z" />
    <glyph glyph-name="uni04E4" unicode="&#x4e4;" horiz-adv-x="840" 
d="M88 0v713h72v-594l535 594h57v-713h-71v593l-534 -593h-59zM242 819v81h72v-81h-72zM527 819v81h72v-81h-72z" />
    <glyph glyph-name="uni04E5" unicode="&#x4e5;" horiz-adv-x="685" 
d="M78 0v564h71v-445l402 445h56v-564h-71v444l-401 -444h-57zM164 669v81h72v-81h-72zM449 669v81h72v-81h-72z" />
    <glyph glyph-name="uni04E6" unicode="&#x4e6;" horiz-adv-x="917" 
d="M456 -14q-75 0 -142.5 17t-118.5 59.5t-81 114.5t-30 181q0 106 28.5 176.5t78 113.5t117 61t145.5 18q75 0 142.5 -17t118.5 -59.5t81 -114.5t30 -181q0 -106 -28.5 -177t-78 -113.5t-117 -60.5t-145.5 -18zM456 56q63 0 117 14.5t94 49t63 92t23 143.5q0 89 -24 147
t-65 92.5t-95.5 48.5t-115.5 14q-63 0 -117 -14.5t-94 -49t-63 -92t-23 -143.5q0 -89 24 -147t65 -92.5t95.5 -48.5t115.5 -14zM280 819v81h72v-81h-72zM565 819v81h72v-81h-72z" />
    <glyph glyph-name="uni04E7" unicode="&#x4e7;" horiz-adv-x="741" 
d="M371 -15q-60 0 -114 14t-94.5 48t-64.5 91.5t-24 144.5q0 85 22.5 141.5t62.5 91t94 49t116 14.5q60 0 114.5 -14t95 -48t64.5 -91.5t24 -144.5q0 -85 -23 -141.5t-62.5 -91t-93.5 -49t-117 -14.5zM371 55q47 0 88 11t71 37t47.5 69.5t17.5 108.5q0 67 -18 111t-49 70
t-72 36.5t-87 10.5q-47 0 -87.5 -11t-70.5 -37t-47.5 -69.5t-17.5 -108.5q0 -67 18 -111t49 -70t72 -36.5t86 -10.5zM192 669v81h72v-81h-72zM477 669v81h72v-81h-72z" />
    <glyph glyph-name="uni04EC" unicode="&#x4ec;" horiz-adv-x="812" 
d="M83 78q33 -6 67.5 -10.5t68 -7t64 -3.5t55.5 -1q59 0 114 7t99 34t72 80t33 145h-502v68h502q-5 92 -33 145.5t-71.5 80.5t-99 34.5t-114.5 7.5q-25 0 -55.5 -1t-64 -3.5t-68 -7t-67.5 -10.5l-6 69q69 10 139 16t127 6q73 0 142.5 -11.5t123.5 -49.5t86.5 -111.5
t32.5 -197.5t-32.5 -197.5t-86.5 -111.5t-123.5 -49.5t-142.5 -11.5q-57 0 -127 6t-139 16zM199 819v81h72v-81h-72zM484 819v81h72v-81h-72z" />
    <glyph glyph-name="uni04ED" unicode="&#x4ed;" horiz-adv-x="679" 
d="M305 54q44 0 83 11t69.5 34.5t50 60.5t24.5 89h-401v67h402q-5 60 -24 97.5t-49.5 59t-70 29.5t-84.5 8t-105 -4.5t-120 -18.5l-7 70q62 10 123.5 16t112.5 6q61 0 115 -13t94.5 -46t63.5 -90.5t23 -146.5q0 -79 -23 -135t-63.5 -92t-94.5 -53t-115 -17q-51 0 -112.5 5.5
t-123.5 16.5l7 69q60 -14 120 -18.5t105 -4.5zM121 669v81h72v-81h-72zM406 669v81h72v-81h-72z" />
    <glyph glyph-name="uni04EE" unicode="&#x4ee;" horiz-adv-x="806" 
d="M381 175l-2 -1l-317 539h80l275 -470l248 470h79l-380 -713h-75zM208 828v60h390v-60h-390z" />
    <glyph glyph-name="uni04EF" unicode="&#x4ef;" horiz-adv-x="730" 
d="M338 24l-290 540h81l247 -464l230 464h75l-389 -784h-75zM161 678v60h390v-60h-390z" />
    <glyph glyph-name="uni04F0" unicode="&#x4f0;" horiz-adv-x="806" 
d="M381 175l-2 -1l-317 539h80l275 -470l248 470h79l-380 -713h-75zM225 819v81h72v-81h-72zM510 819v81h72v-81h-72z" />
    <glyph glyph-name="uni04F1" unicode="&#x4f1;" horiz-adv-x="730" 
d="M338 24l-290 540h81l247 -464l230 464h75l-389 -784h-75zM187 669v81h72v-81h-72zM472 669v81h72v-81h-72z" />
    <glyph glyph-name="uni04F4" unicode="&#x4f4;" horiz-adv-x="762" 
d="M84 713h71v-254q0 -56 19 -93.5t55.5 -60.5t89.5 -33t120 -10q58 0 93.5 5.5t70.5 12.5v433h71v-713h-71v210q-35 -6 -76 -11t-95 -5q-81 0 -145.5 13.5t-109.5 45t-69 81.5t-24 124v255zM203 819v81h72v-81h-72zM488 819v81h72v-81h-72z" />
    <glyph glyph-name="uni04F5" unicode="&#x4f5;" horiz-adv-x="678" 
d="M527 224q-32 -8 -88 -16t-144 -8q-217 0 -217 221v143h72v-143q0 -75 35 -114t106 -39q85 0 143.5 9.5t92.5 19.5v267h71v-564l-71 1v223zM161 669v81h72v-81h-72zM446 669v81h72v-81h-72z" />
    <glyph glyph-name="uni04F8" unicode="&#x4f8;" horiz-adv-x="995" 
d="M160 713v-280q76 4 146.5 6.5t119.5 2.5q67 0 123.5 -8t98 -32t65 -68.5t23.5 -118.5t-23.5 -119t-65.5 -69t-99.5 -31.5t-124.5 -7.5q-28 0 -66.5 1t-82.5 2.5t-92 3.5t-94 5v713h72zM664 215q0 52 -18.5 83.5t-51 48t-77.5 21.5t-97 5q-44 0 -113.5 -2.5t-146.5 -6.5
v-299q77 -4 146.5 -6t113.5 -2q52 0 97 5t77.5 21.5t51 48t18.5 83.5zM835 0v713h72v-713h-72zM319 819v81h72v-81h-72zM604 819v81h72v-81h-72z" />
    <glyph glyph-name="uni04F9" unicode="&#x4f9;" horiz-adv-x="826" 
d="M149 348q31 3 61 5t57 3.5t50 2t39 0.5q52 0 95.5 -9.5t75.5 -31.5t50 -58.5t18 -90.5q0 -55 -18.5 -90t-51.5 -54.5t-78.5 -27t-99.5 -7.5q-17 0 -46.5 0.5t-66 2t-77 4t-79.5 5.5v562h71v-216zM352 290q-13 0 -34.5 -0.5t-48.5 -2t-58 -3t-62 -4.5v-214
q63 -5 117.5 -6.5t82.5 -1.5q39 0 71 4t55 16t36 33.5t13 56.5q0 34 -12.5 57.5t-35 38t-54.5 20.5t-70 6zM748 564v-564h-71v564h71zM235 669v81h72v-81h-72zM520 669v81h72v-81h-72z" />
    <glyph glyph-name="endash" unicode="&#x2013;" horiz-adv-x="688" 
d="M78 301v70h532v-70h-532z" />
    <glyph glyph-name="emdash" unicode="&#x2014;" horiz-adv-x="831" 
d="M78 301v70h675v-70h-675z" />
    <glyph glyph-name="quoteleft" unicode="&#x2018;" horiz-adv-x="271" 
d="M217 698q-15 -35 -27.5 -70t-21 -68t-13.5 -62.5t-5 -52.5h-72q0 26 5.5 59t15 70t23 76t29.5 77z" />
    <glyph glyph-name="quoteright" unicode="&#x2019;" horiz-adv-x="271" 
d="M54 460q16 34 28.5 69.5t21 68.5t13 62.5t4.5 52.5h72q0 -26 -5 -59.5t-15 -70.5t-23.5 -76t-29.5 -76z" />
    <glyph glyph-name="quotesinglbase" unicode="&#x201a;" horiz-adv-x="272" 
d="M54 -180q16 34 28.5 69.5t21.5 68.5t13.5 62t4.5 51h72q0 -26 -5 -59t-14.5 -69.5t-23 -75.5t-29.5 -76z" />
    <glyph glyph-name="quotedblleft" unicode="&#x201c;" horiz-adv-x="421" 
d="M368 698q-15 -35 -27.5 -70t-21 -68t-13.5 -62.5t-5 -52.5h-70q0 26 5 59t14 70t22 76t30 77zM211 698q-15 -35 -27.5 -70t-21 -68t-13.5 -62.5t-5 -52.5h-72q0 26 5.5 59t15 70t23 76t29.5 77z" />
    <glyph glyph-name="quotedblright" unicode="&#x201d;" horiz-adv-x="428" 
d="M54 460q16 34 28.5 69.5t21 68.5t13 62.5t4.5 52.5h72q0 -26 -5 -59.5t-15 -70.5t-23.5 -76t-29.5 -76zM213 460q15 34 27 69.5t21 68.5t13.5 62.5t4.5 52.5h71q0 -26 -5 -59.5t-14.5 -70.5t-23 -76t-29.5 -76z" />
    <glyph glyph-name="quotedblbase" unicode="&#x201e;" horiz-adv-x="428" 
d="M54 -182q16 34 28.5 69.5t21 68.5t13 62.5t4.5 52.5h72q0 -26 -5 -59.5t-15 -70.5t-23.5 -76t-29.5 -76zM213 -182q15 34 27 69.5t21 68.5t13.5 62.5t4.5 52.5h71q0 -26 -5 -59.5t-14.5 -70.5t-23 -76t-29.5 -76z" />
    <glyph glyph-name="bullet" unicode="&#x2022;" horiz-adv-x="371" 
d="M186 245q-23 0 -43 5.5t-35.5 18t-24.5 34t-9 54.5q0 32 8.5 53.5t23.5 34t35.5 18t43.5 5.5q22 0 42.5 -5.5t36 -18t24.5 -34t9 -54.5q0 -32 -8.5 -53.5t-23.5 -34t-35.5 -18t-43.5 -5.5z" />
    <glyph glyph-name="guilsinglleft" unicode="&#x2039;" horiz-adv-x="424" 
d="M64 282l218 282h87l-218 -282l218 -282h-87z" />
    <glyph glyph-name="guilsinglright" unicode="&#x203a;" horiz-adv-x="424" 
d="M150 0h-87l218 282l-218 282h87l218 -282z" />
    <glyph glyph-name="Euro" unicode="&#x20ac;" 
d="M184 415q-1 -11 -1 -22.5v-23.5v-35.5t2 -32.5h394v-63h-384q12 -57 34.5 -92.5t52.5 -56t65.5 -28t74.5 -7.5q16 0 42.5 1t58.5 3.5t66.5 7t67.5 11.5l6 -69q-34 -5 -69 -9t-68.5 -7t-64 -4.5t-54.5 -1.5q-48 0 -94 10.5t-84 38.5t-66 77t-41 126h-94v63h86
q-1 16 -1.5 33t-0.5 35v23.5t1 22.5h-85v63h91q11 82 38.5 131t65 75t82.5 34.5t92 8.5q57 0 127 -6t139 -16l-6 -69q-66 13 -135 17.5t-117 4.5q-36 0 -70 -5t-62.5 -23.5t-50 -54.5t-31.5 -97h388v-63h-395z" />
    <glyph glyph-name="uni20B4" unicode="&#x20b4;" 
d="M376 55q51 0 121.5 5t142.5 17l6 -67q-72 -11 -145.5 -17t-129.5 -6q-55 0 -106 8t-90.5 25.5t-63 45.5t-23.5 69q0 23 8.5 51t27.5 52h-96v63h641v-63h-457q-23 -22 -35 -50.5t-12 -47.5q0 -26 18.5 -42t48.5 -26t67.5 -13.5t76.5 -3.5zM320 658q-51 0 -121.5 -5
t-142.5 -17l-6 67q72 11 145.5 17t129.5 6q55 0 106 -8t90.5 -25.5t63 -46t23.5 -68.5q0 -22 -8.5 -49.5t-25.5 -50.5h95v-63h-641v63h459q21 21 32.5 49t11.5 46q0 25 -18.5 41.5t-48.5 26.5t-67.5 13.5t-76.5 3.5z" />
    <glyph glyph-name="uni20B8" unicode="&#x20b8;" 
d="M314 0v459h-286v70h654l-6 -70h-291v-459h-71zM28 643v70h654l-6 -70h-648z" />
    <glyph glyph-name="uni20B9" unicode="&#x20b9;" 
d="M111 0v120h-83v63h83v114h-83v63h83v353q43 3 88 5t86.5 3.5t75.5 2.5t57 1q53 0 99 -7t79.5 -29.5t53 -63.5t19.5 -108q0 -72 -22.5 -115.5t-63.5 -66.5t-99 -30.5t-129 -7.5h-172v-114h342v-63h-342v-120h-72zM415 656q-34 0 -97 -2t-135 -6v-288h170q55 0 100 5t77 21
t49.5 47t17.5 82q0 46 -14 74t-38.5 43t-57.5 19.5t-72 4.5z" />
    <glyph glyph-name="uni20BA" unicode="&#x20ba;" 
d="M111 0v120h-83v63h83v114h-83v63h83v353q43 3 88 5t86.5 3.5t75.5 2.5t57 1q53 0 99 -7t79.5 -29.5t53 -63.5t19.5 -108q0 -72 -22.5 -115.5t-63.5 -66.5t-99 -30.5t-129 -7.5h-172v-114h342v-63h-342v-120h-72zM415 656q-34 0 -97 -2t-135 -6v-288h170q55 0 100 5t77 21
t49.5 47t17.5 82q0 46 -14 74t-38.5 43t-57.5 19.5t-72 4.5z" />
    <glyph glyph-name="uni20BB" unicode="&#x20bb;" 
d="M111 0v120h-83v63h83v114h-83v63h83v353q43 3 88 5t86.5 3.5t75.5 2.5t57 1q53 0 99 -7t79.5 -29.5t53 -63.5t19.5 -108q0 -72 -22.5 -115.5t-63.5 -66.5t-99 -30.5t-129 -7.5h-172v-114h342v-63h-342v-120h-72zM415 656q-34 0 -97 -2t-135 -6v-288h170q55 0 100 5t77 21
t49.5 47t17.5 82q0 46 -14 74t-38.5 43t-57.5 19.5t-72 4.5z" />
    <glyph glyph-name="uni20BC" unicode="&#x20bc;" 
d="M111 0v120h-83v63h83v114h-83v63h83v353q43 3 88 5t86.5 3.5t75.5 2.5t57 1q53 0 99 -7t79.5 -29.5t53 -63.5t19.5 -108q0 -72 -22.5 -115.5t-63.5 -66.5t-99 -30.5t-129 -7.5h-172v-114h342v-63h-342v-120h-72zM415 656q-34 0 -97 -2t-135 -6v-288h170q55 0 100 5t77 21
t49.5 47t17.5 82q0 46 -14 74t-38.5 43t-57.5 19.5t-72 4.5z" />
    <glyph glyph-name="uni20BD" unicode="&#x20bd;" 
d="M111 0v120h-83v63h83v114h-83v63h83v353q43 3 88 5t86.5 3.5t75.5 2.5t57 1q53 0 99 -7t79.5 -29.5t53 -63.5t19.5 -108q0 -72 -22.5 -115.5t-63.5 -66.5t-99 -30.5t-129 -7.5h-172v-114h342v-63h-342v-120h-72zM415 656q-34 0 -97 -2t-135 -6v-288h170q55 0 100 5t77 21
t49.5 47t17.5 82q0 46 -14 74t-38.5 43t-57.5 19.5t-72 4.5z" />
    <glyph glyph-name="uni20BE" unicode="&#x20be;" 
d="M111 0v120h-83v63h83v114h-83v63h83v353q43 3 88 5t86.5 3.5t75.5 2.5t57 1q53 0 99 -7t79.5 -29.5t53 -63.5t19.5 -108q0 -72 -22.5 -115.5t-63.5 -66.5t-99 -30.5t-129 -7.5h-172v-114h342v-63h-342v-120h-72zM415 656q-34 0 -97 -2t-135 -6v-288h170q55 0 100 5t77 21
t49.5 47t17.5 82q0 46 -14 74t-38.5 43t-57.5 19.5t-72 4.5z" />
    <glyph glyph-name="uni20BF" unicode="&#x20bf;" 
d="M111 0v120h-83v63h83v114h-83v63h83v353q43 3 88 5t86.5 3.5t75.5 2.5t57 1q53 0 99 -7t79.5 -29.5t53 -63.5t19.5 -108q0 -72 -22.5 -115.5t-63.5 -66.5t-99 -30.5t-129 -7.5h-172v-114h342v-63h-342v-120h-72zM415 656q-34 0 -97 -2t-135 -6v-288h170q55 0 100 5t77 21
t49.5 47t17.5 82q0 46 -14 74t-38.5 43t-57.5 19.5t-72 4.5z" />
    <glyph glyph-name="uni20C0" unicode="&#x20c0;" 
d="M111 0v120h-83v63h83v114h-83v63h83v353q43 3 88 5t86.5 3.5t75.5 2.5t57 1q53 0 99 -7t79.5 -29.5t53 -63.5t19.5 -108q0 -72 -22.5 -115.5t-63.5 -66.5t-99 -30.5t-129 -7.5h-172v-114h342v-63h-342v-120h-72zM415 656q-34 0 -97 -2t-135 -6v-288h170q55 0 100 5t77 21
t49.5 47t17.5 82q0 46 -14 74t-38.5 43t-57.5 19.5t-72 4.5z" />
    <glyph glyph-name="uni20C1" unicode="&#x20c1;" 
d="M111 0v120h-83v63h83v114h-83v63h83v353q43 3 88 5t86.5 3.5t75.5 2.5t57 1q53 0 99 -7t79.5 -29.5t53 -63.5t19.5 -108q0 -72 -22.5 -115.5t-63.5 -66.5t-99 -30.5t-129 -7.5h-172v-114h342v-63h-342v-120h-72zM415 656q-34 0 -97 -2t-135 -6v-288h170q55 0 100 5t77 21
t49.5 47t17.5 82q0 46 -14 74t-38.5 43t-57.5 19.5t-72 4.5z" />
    <glyph glyph-name="uni20C2" unicode="&#x20c2;" 
d="M111 0v120h-83v63h83v114h-83v63h83v353q43 3 88 5t86.5 3.5t75.5 2.5t57 1q53 0 99 -7t79.5 -29.5t53 -63.5t19.5 -108q0 -72 -22.5 -115.5t-63.5 -66.5t-99 -30.5t-129 -7.5h-172v-114h342v-63h-342v-120h-72zM415 656q-34 0 -97 -2t-135 -6v-288h170q55 0 100 5t77 21
t49.5 47t17.5 82q0 46 -14 74t-38.5 43t-57.5 19.5t-72 4.5z" />
    <glyph glyph-name="uni20C3" unicode="&#x20c3;" 
d="M111 0v120h-83v63h83v114h-83v63h83v353q43 3 88 5t86.5 3.5t75.5 2.5t57 1q53 0 99 -7t79.5 -29.5t53 -63.5t19.5 -108q0 -72 -22.5 -115.5t-63.5 -66.5t-99 -30.5t-129 -7.5h-172v-114h342v-63h-342v-120h-72zM415 656q-34 0 -97 -2t-135 -6v-288h170q55 0 100 5t77 21
t49.5 47t17.5 82q0 46 -14 74t-38.5 43t-57.5 19.5t-72 4.5z" />
    <glyph glyph-name="uni20C4" unicode="&#x20c4;" 
d="M111 0v120h-83v63h83v114h-83v63h83v353q43 3 88 5t86.5 3.5t75.5 2.5t57 1q53 0 99 -7t79.5 -29.5t53 -63.5t19.5 -108q0 -72 -22.5 -115.5t-63.5 -66.5t-99 -30.5t-129 -7.5h-172v-114h342v-63h-342v-120h-72zM415 656q-34 0 -97 -2t-135 -6v-288h170q55 0 100 5t77 21
t49.5 47t17.5 82q0 46 -14 74t-38.5 43t-57.5 19.5t-72 4.5z" />
    <glyph glyph-name="uni20C5" unicode="&#x20c5;" 
d="M111 0v120h-83v63h83v114h-83v63h83v353q43 3 88 5t86.5 3.5t75.5 2.5t57 1q53 0 99 -7t79.5 -29.5t53 -63.5t19.5 -108q0 -72 -22.5 -115.5t-63.5 -66.5t-99 -30.5t-129 -7.5h-172v-114h342v-63h-342v-120h-72zM415 656q-34 0 -97 -2t-135 -6v-288h170q55 0 100 5t77 21
t49.5 47t17.5 82q0 46 -14 74t-38.5 43t-57.5 19.5t-72 4.5z" />
    <glyph glyph-name="uni20C6" unicode="&#x20c6;" 
d="M111 0v120h-83v63h83v114h-83v63h83v353q43 3 88 5t86.5 3.5t75.5 2.5t57 1q53 0 99 -7t79.5 -29.5t53 -63.5t19.5 -108q0 -72 -22.5 -115.5t-63.5 -66.5t-99 -30.5t-129 -7.5h-172v-114h342v-63h-342v-120h-72zM415 656q-34 0 -97 -2t-135 -6v-288h170q55 0 100 5t77 21
t49.5 47t17.5 82q0 46 -14 74t-38.5 43t-57.5 19.5t-72 4.5z" />
    <glyph glyph-name="uni20C7" unicode="&#x20c7;" 
d="M111 0v120h-83v63h83v114h-83v63h83v353q43 3 88 5t86.5 3.5t75.5 2.5t57 1q53 0 99 -7t79.5 -29.5t53 -63.5t19.5 -108q0 -72 -22.5 -115.5t-63.5 -66.5t-99 -30.5t-129 -7.5h-172v-114h342v-63h-342v-120h-72zM415 656q-34 0 -97 -2t-135 -6v-288h170q55 0 100 5t77 21
t49.5 47t17.5 82q0 46 -14 74t-38.5 43t-57.5 19.5t-72 4.5z" />
    <glyph glyph-name="uni20C8" unicode="&#x20c8;" 
d="M111 0v120h-83v63h83v114h-83v63h83v353q43 3 88 5t86.5 3.5t75.5 2.5t57 1q53 0 99 -7t79.5 -29.5t53 -63.5t19.5 -108q0 -72 -22.5 -115.5t-63.5 -66.5t-99 -30.5t-129 -7.5h-172v-114h342v-63h-342v-120h-72zM415 656q-34 0 -97 -2t-135 -6v-288h170q55 0 100 5t77 21
t49.5 47t17.5 82q0 46 -14 74t-38.5 43t-57.5 19.5t-72 4.5z" />
    <glyph glyph-name="uni20C9" unicode="&#x20c9;" 
d="M111 0v120h-83v63h83v114h-83v63h83v353q43 3 88 5t86.5 3.5t75.5 2.5t57 1q53 0 99 -7t79.5 -29.5t53 -63.5t19.5 -108q0 -72 -22.5 -115.5t-63.5 -66.5t-99 -30.5t-129 -7.5h-172v-114h342v-63h-342v-120h-72zM415 656q-34 0 -97 -2t-135 -6v-288h170q55 0 100 5t77 21
t49.5 47t17.5 82q0 46 -14 74t-38.5 43t-57.5 19.5t-72 4.5z" />
    <glyph glyph-name="uni20CA" unicode="&#x20ca;" 
d="M111 0v120h-83v63h83v114h-83v63h83v353q43 3 88 5t86.5 3.5t75.5 2.5t57 1q53 0 99 -7t79.5 -29.5t53 -63.5t19.5 -108q0 -72 -22.5 -115.5t-63.5 -66.5t-99 -30.5t-129 -7.5h-172v-114h342v-63h-342v-120h-72zM415 656q-34 0 -97 -2t-135 -6v-288h170q55 0 100 5t77 21
t49.5 47t17.5 82q0 46 -14 74t-38.5 43t-57.5 19.5t-72 4.5z" />
    <glyph glyph-name="uni20CB" unicode="&#x20cb;" 
d="M111 0v120h-83v63h83v114h-83v63h83v353q43 3 88 5t86.5 3.5t75.5 2.5t57 1q53 0 99 -7t79.5 -29.5t53 -63.5t19.5 -108q0 -72 -22.5 -115.5t-63.5 -66.5t-99 -30.5t-129 -7.5h-172v-114h342v-63h-342v-120h-72zM415 656q-34 0 -97 -2t-135 -6v-288h170q55 0 100 5t77 21
t49.5 47t17.5 82q0 46 -14 74t-38.5 43t-57.5 19.5t-72 4.5z" />
    <glyph glyph-name="uni20CC" unicode="&#x20cc;" 
d="M111 0v120h-83v63h83v114h-83v63h83v353q43 3 88 5t86.5 3.5t75.5 2.5t57 1q53 0 99 -7t79.5 -29.5t53 -63.5t19.5 -108q0 -72 -22.5 -115.5t-63.5 -66.5t-99 -30.5t-129 -7.5h-172v-114h342v-63h-342v-120h-72zM415 656q-34 0 -97 -2t-135 -6v-288h170q55 0 100 5t77 21
t49.5 47t17.5 82q0 46 -14 74t-38.5 43t-57.5 19.5t-72 4.5z" />
    <glyph glyph-name="uni20CD" unicode="&#x20cd;" 
d="M111 0v120h-83v63h83v114h-83v63h83v353q43 3 88 5t86.5 3.5t75.5 2.5t57 1q53 0 99 -7t79.5 -29.5t53 -63.5t19.5 -108q0 -72 -22.5 -115.5t-63.5 -66.5t-99 -30.5t-129 -7.5h-172v-114h342v-63h-342v-120h-72zM415 656q-34 0 -97 -2t-135 -6v-288h170q55 0 100 5t77 21
t49.5 47t17.5 82q0 46 -14 74t-38.5 43t-57.5 19.5t-72 4.5z" />
    <glyph glyph-name="uni20CE" unicode="&#x20ce;" 
d="M111 0v120h-83v63h83v114h-83v63h83v353q43 3 88 5t86.5 3.5t75.5 2.5t57 1q53 0 99 -7t79.5 -29.5t53 -63.5t19.5 -108q0 -72 -22.5 -115.5t-63.5 -66.5t-99 -30.5t-129 -7.5h-172v-114h342v-63h-342v-120h-72zM415 656q-34 0 -97 -2t-135 -6v-288h170q55 0 100 5t77 21
t49.5 47t17.5 82q0 46 -14 74t-38.5 43t-57.5 19.5t-72 4.5z" />
    <glyph glyph-name="uni20CF" unicode="&#x20cf;" 
d="M111 0v120h-83v63h83v114h-83v63h83v353q43 3 88 5t86.5 3.5t75.5 2.5t57 1q53 0 99 -7t79.5 -29.5t53 -63.5t19.5 -108q0 -72 -22.5 -115.5t-63.5 -66.5t-99 -30.5t-129 -7.5h-172v-114h342v-63h-342v-120h-72zM415 656q-34 0 -97 -2t-135 -6v-288h170q55 0 100 5t77 21
t49.5 47t17.5 82q0 46 -14 74t-38.5 43t-57.5 19.5t-72 4.5z" />
    <glyph glyph-name="uni2116" unicode="&#x2116;" horiz-adv-x="1220" 
d="M695 0l-535 593v-593h-72v713h59l534 -594v594h71v-713h-57zM991 171q-33 0 -62 10.5t-50 33t-33.5 57.5t-12.5 84t12.5 84.5t33.5 58t50 33t62 10.5q32 0 60.5 -10.5t49.5 -33t33.5 -58t12.5 -84.5t-12.5 -84t-33.5 -57.5t-49.5 -33t-60.5 -10.5zM991 241q35 0 59.5 27
t24.5 88t-24.5 88.5t-59.5 27.5q-36 0 -61 -27.5t-25 -88.5t25 -88t61 -27zM842 0v70h294v-70h-294z" />
    <glyph glyph-name="trademark" unicode="&#x2122;" horiz-adv-x="1108" 
d="M1009 319v340l-179 -260h-49l-180 260v-340h-57v451h50l211 -311l212 311h50v-451h-58zM224 319v397h-199v54h448v-54h-191v-397h-58z" />
    <glyph glyph-name="arrowleft" unicode="&#x2190;" 
d="M683 327h-539l160 -148l84 -85l-51 -51l-318 319l319 320l50 -50l-85 -85l-160 -148h540v-72z" />
    <glyph glyph-name="arrowup" unicode="&#x2191;" 
d="M314 30v540l-148 -160l-85 -85l-50 50l320 319l319 -318l-51 -51l-85 84l-148 160v-539h-72z" />
    <glyph glyph-name="arrowright" unicode="&#x2192;" 
d="M19 399h540l-160 148l-85 85l50 50l319 -320l-318 -319l-51 51l84 85l160 148h-539v72z" />
    <glyph glyph-name="arrowdown" unicode="&#x2193;" 
d="M386 694v-539l148 160l85 84l51 -51l-319 -318l-320 319l50 50l85 -85l148 -160v540h72z" />
    <glyph glyph-name="uni2196" unicode="&#x2196;" 
d="M587 93l-423 424l8 -217v-120h-72v451h452v-70h-120l-218 8l424 -425z" />
    <glyph glyph-name="uni2197" unicode="&#x2197;" 
d="M528 180v329l-415 -416l-51 51l416 417h-330v70h452v-451h-72z" />
    <glyph glyph-name="uni2198" unicode="&#x2198;" 
d="M113 631l415 -416v329h72v-451h-452v70h330l-416 417z" />
    <glyph glyph-name="uni2199" unicode="&#x2199;" 
d="M638 580l-416 -417h330v-70h-452v451h72v-329l415 416z" />
    <glyph glyph-name="zero.slash" unicode="&#xe030;" 
d="M352 -14q-69 0 -127 21t-100 66t-65.5 115t-23.5 168t23.5 168.5t65.5 115.5t100 66t127 21q68 0 125.5 -21t99 -66t64.5 -115.5t23 -168.5t-23 -168t-64.5 -115t-99 -66t-125.5 -21zM108 356q0 -99 27 -165l392 393q-32 38 -76.5 56t-98.5 18t-99 -17t-77.5 -53.5
t-50 -94t-17.5 -137.5zM352 54q53 0 97.5 17t76 54t49 94t17.5 137q0 50 -7 90.5t-20 73.5l-392 -393q32 -38 77.5 -55.5t101.5 -17.5z" />
    <glyph glyph-name="uni0414.BUL" unicode="&#xe414;" horiz-adv-x="993" 
d="M43 -172v241h92l331 644h60l330 -644h94v-241h-72v172h-763v-172h-72zM777 69l-281 550l-281 -550h562z" />
    <glyph glyph-name="uni041B.BUL" unicode="&#xe41b;" horiz-adv-x="907" 
d="M454 619l-316 -619h-80l366 713h60l366 -713h-80z" />
    <glyph glyph-name="uni0431.SRB" unicode="&#xe431;" horiz-adv-x="741" 
d="M371 -15q-60 0 -114 14t-94.5 48t-64.5 91.5t-24 144.5q0 86 23 143t64 91q-18 17 -27.5 40.5t-9.5 56.5q0 51 20.5 84t55 51.5t79.5 25.5t94 7q22 0 48.5 1t56 3.5t60.5 7t61 11.5l5 -70q-62 -10 -123.5 -16t-110.5 -6q-37 0 -69 -4t-55 -14.5t-36.5 -28.5t-13.5 -47
q0 -23 8.5 -38.5t22.5 -24.5q32 12 67.5 17.5t74.5 5.5q60 0 114.5 -14t95 -48t64.5 -91.5t24 -144.5q0 -85 -23 -141.5t-62.5 -91t-93.5 -49t-117 -14.5zM371 55q47 0 88 11t71 37t47.5 69.5t17.5 108.5q0 67 -18 111t-49 70t-72 36.5t-87 10.5q-47 0 -87.5 -11t-70.5 -37
t-47.5 -69.5t-17.5 -108.5q0 -67 18 -111t49 -70t72 -36.5t86 -10.5z" />
    <glyph glyph-name="uni0432.BUL" unicode="&#xe432;" horiz-adv-x="665" 
d="M78 586q0 60 21.5 98.5t56 60t78.5 29.5t90 8q51 0 96 -9.5t79 -31t53.5 -57t19.5 -86.5q0 -70 -35 -110t-91 -57q34 -9 62 -26.5t47.5 -44t30.5 -63t11 -84.5q0 -69 -21.5 -112.5t-58 -68t-84 -33.5t-99.5 -9q-48 0 -94 8t-82 30.5t-58 64t-22 107.5v386zM149 396v-194
q0 -50 17 -78.5t44 -43t60 -18.5t65 -4q36 0 70.5 4.5t61 21t43 47.5t16.5 85q0 51 -15 85.5t-41 55.5t-61 30t-75 9h-185zM149 465h185q36 0 67 7.5t53.5 23t35 39.5t12.5 58q0 36 -14.5 59.5t-39.5 37t-58.5 18.5t-70.5 5q-30 0 -60 -4t-54.5 -17.5t-40 -39.5t-15.5 -71
v-116z" />
    <glyph glyph-name="uni0433.BUL" unicode="&#xe433;" horiz-adv-x="637" 
d="M328 54q45 0 105.5 4.5t120.5 18.5l6 -69q-63 -11 -123.5 -16.5t-108.5 -5.5q-46 0 -92 6.5t-82.5 25t-59 51.5t-22.5 85q0 46 19 75t52.5 46t79 26.5t97.5 18.5q27 4 57.5 7.5t56 12t42 26t16.5 50.5q0 29 -13.5 47t-36.5 28.5t-55 14.5t-69 4q-44 0 -105 -5t-121 -18
l-5 70q62 10 123.5 16t110.5 6q47 0 91 -7t77.5 -25.5t54 -51.5t20.5 -84q0 -44 -16 -71t-47 -44t-75.5 -27t-101.5 -18q-37 -6 -69.5 -11.5t-57 -15t-39 -26.5t-14.5 -47q0 -31 15.5 -50t41 -29.5t59 -14t68.5 -3.5z" />
    <glyph glyph-name="uni0434.BUL" unicode="&#xe434;" horiz-adv-x="718" 
d="M568 9q-61 -11 -118 -17t-96 -6q-60 0 -111 15.5t-88.5 51.5t-59 94.5t-21.5 143.5q0 86 21.5 141.5t59.5 88t90 45.5t114 13q23 0 55.5 -1.5t69.5 -4.5t77 -7t79 -9v-552q0 -59 -19.5 -103.5t-53 -73.5t-79.5 -43.5t-99 -14.5q-60 0 -133 5.5t-145 16.5l6 69
q71 -14 142 -18.5t127 -4.5q38 0 71 11t58 32t39 52t14 71v5zM359 54q15 0 38 1t50.5 4t58.5 7.5t62 10.5v419q-63 8 -118 11t-86 3q-48 0 -88.5 -8.5t-69 -32.5t-44.5 -67t-16 -111t16 -113.5t44 -73t67 -39t86 -11.5z" />
    <glyph glyph-name="uni0436.BUL" unicode="&#xe436;" horiz-adv-x="993" 
d="M57 0l254 282l-254 282h91l222 -248h90v462l72 4v-466h89l224 248h90l-254 -282l254 -282h-90l-224 249h-89v-249h-72v249h-90l-222 -249h-91z" />
    <glyph glyph-name="uni0437.BUL" unicode="&#xe437;" horiz-adv-x="642" 
d="M286 -173q36 0 72 4t65.5 20t47.5 46.5t18 83.5q0 48 -15 81t-41 53.5t-61 30t-75 9.5h-139v69h139q39 0 71.5 8t56.5 26t37 47t13 71q0 46 -16 73t-41.5 41t-58.5 17.5t-67 3.5q-46 0 -107 -4.5t-122 -17.5l-6 69q63 10 126 16t112 6q46 0 91 -8t80.5 -29.5t57 -60.5
t21.5 -102q0 -42 -10 -73.5t-28 -54.5t-42.5 -38.5t-54.5 -24.5q67 -20 108.5 -70t41.5 -141q0 -69 -23.5 -112t-62.5 -66.5t-88 -32t-100 -8.5q-23 0 -51.5 1.5t-60.5 4t-66 6.5t-67 10l7 69q64 -14 128.5 -18.5t109.5 -4.5z" />
    <glyph glyph-name="uni0438.BUL" unicode="&#xe438;" horiz-adv-x="723" 
d="M78 564h71v-315q0 -55 16 -92.5t44.5 -60t68 -32t85.5 -9.5q32 0 90 5t121 18v486h71v-540q-39 -9 -79 -16t-78 -12t-72 -7.5t-60 -2.5q-59 0 -109.5 13.5t-88 44t-59 81t-21.5 124.5v315z" />
    <glyph glyph-name="uni0439.BUL" unicode="&#xe439;" horiz-adv-x="723" 
d="M78 564h71v-315q0 -55 16 -92.5t44.5 -60t68 -32t85.5 -9.5q32 0 90 5t121 18v486h71v-540q-39 -9 -79 -16t-78 -12t-72 -7.5t-60 -2.5q-59 0 -109.5 13.5t-88 44t-59 81t-21.5 124.5v315zM361 694q53 0 73 16.5t20 51.5h64q0 -69 -39.5 -98.5t-117.5 -29.5t-117.5 29.5
t-39.5 98.5h65q0 -35 19.5 -51.5t72.5 -16.5z" />
    <glyph glyph-name="uni043A.BUL" unicode="&#xe43a;" horiz-adv-x="618" 
d="M78 0v778l71 4v-466h122l224 248h94l-254 -282l254 -282h-94l-224 249h-122v-249h-71z" />
    <glyph glyph-name="uni043B.BUL" unicode="&#xe43b;" horiz-adv-x="731" 
d="M365 479l-240 -479h-78l288 564h60l286 -564h-78z" />
    <glyph glyph-name="uni043F.BUL" unicode="&#xe43f;" horiz-adv-x="771" 
d="M102 557q39 5 79 9t77.5 7t69.5 4.5t56 1.5q61 0 113.5 -13t90.5 -45.5t59.5 -88t21.5 -141.5v-291h-71v291q0 68 -16 111t-45.5 67t-70 32.5t-88.5 8.5q-31 0 -86.5 -3t-118.5 -11v-496h-71v557v0z" />
    <glyph glyph-name="uni0442.BUL" unicode="&#xe442;" horiz-adv-x="1001" 
d="M78 557q33 5 67.5 9t66 7t57.5 4.5t42 1.5q45 0 83.5 -8t67.5 -28q71 18 125 27t99 9q49 0 92.5 -11t75.5 -38t50.5 -73t18.5 -116v-341h-71v341q0 52 -13 85t-36.5 51.5t-54.5 25.5t-67 7q-35 0 -74.5 -7t-89.5 -24q23 -49 23 -128v-351h-71v351q0 53 -11.5 84.5t-33 48
t-52 21.5t-67.5 5q-19 0 -62 -2.5t-94 -10.5v-497h-71v557v0z" />
    <glyph glyph-name="uni0446.BUL" unicode="&#xe446;" horiz-adv-x="771" 
d="M669 563v-494h69v-241h-70v194q-39 -9 -79 -16t-77.5 -12t-71.5 -7.5t-60 -2.5q-59 0 -109.5 13.5t-88 44t-59 81t-21.5 124.5v316h71v-316q0 -55 16 -92.5t44.5 -60t68 -32t85.5 -9.5q32 0 90 5t121 18v487h71z" />
    <glyph glyph-name="uni0448.BUL" unicode="&#xe448;" horiz-adv-x="1001" 
d="M923 7q-33 -5 -67.5 -9t-66 -7t-57.5 -4.5t-42 -1.5q-45 0 -83.5 7.5t-68.5 27.5q-70 -17 -124.5 -26t-98.5 -9q-50 0 -93 11t-75 38t-50.5 73t-18.5 116v341h71v-341q0 -52 13 -85t36.5 -51.5t54.5 -25.5t67 -7q34 0 73.5 6.5t90.5 23.5q-11 25 -17 56.5t-6 72.5v351h71
v-351q0 -53 11.5 -84.5t33 -48t52 -21.5t67.5 -5q18 0 61.5 2.5t94.5 9.5v498h71v-557v0z" />
    <glyph glyph-name="uni0449.BUL" unicode="&#xe449;" horiz-adv-x="1040" 
d="M532 213q0 -53 11.5 -84.5t33 -48t52 -21.5t67.5 -5q18 0 61.5 2.5t94.5 9.5v498h71v-495h71v-241h-71v179q-33 -5 -67.5 -9t-66 -7t-57.5 -4.5t-42 -1.5q-45 0 -83.5 7.5t-68.5 27.5q-70 -17 -124.5 -26t-98.5 -9q-50 0 -93 11t-75 38t-50.5 73t-18.5 116v341h71v-341
q0 -52 13 -85t36.5 -51.5t54.5 -25.5t67 -7q34 0 73.5 6.5t90.5 23.5q-11 25 -17 56.5t-6 72.5v351h71v-351z" />
    <glyph glyph-name="uni044A.BUL" unicode="&#xe44a;" horiz-adv-x="799" 
d="M223 497h-171v67h242v-216q31 3 61 5t57 3.5t50 2t39 0.5q52 0 96 -9.5t75.5 -32t49.5 -59t18 -91.5q0 -56 -18.5 -91t-52 -55t-80 -27.5t-102.5 -7.5q-57 0 -105 7.5t-83.5 27.5t-55.5 56t-20 92v328zM497 290q-13 0 -34.5 -0.5t-48.5 -2t-58 -3t-62 -4.5v-112
q0 -36 14.5 -58.5t40 -35t61.5 -16.5t78 -4q41 0 74.5 4t57 16t36.5 34t13 58q0 35 -12.5 59t-35 38.5t-54 20.5t-70.5 6z" />
    <glyph glyph-name="uni044C.BUL" unicode="&#xe44c;" horiz-adv-x="654" 
d="M78 564h71v-216q31 3 61 5t57 3.5t50 2t39 0.5q52 0 96 -9.5t75.5 -32t49.5 -59t18 -91.5q0 -56 -18.5 -91t-52 -55t-80 -27.5t-102.5 -7.5q-57 0 -105 7.5t-83.5 27.5t-55.5 56t-20 92v395zM352 290q-13 0 -34.5 -0.5t-48.5 -2t-58 -3t-62 -4.5v-112q0 -36 14.5 -58.5
t40 -35t61.5 -16.5t78 -4q41 0 74.5 4t57 16t36.5 34t13 58q0 35 -12.5 59t-35 38.5t-54 20.5t-70.5 6z" />
    <glyph glyph-name="uni044E.BUL" unicode="&#xe44e;" horiz-adv-x="904" 
d="M78 0v778l71 4v-466h106q4 75 28 125t61.5 81t87.5 44t107 13q58 0 110.5 -14t92 -48t62.5 -91.5t23 -144.5q0 -85 -22 -141.5t-60.5 -91t-91 -49t-112.5 -14.5q-55 0 -105 12.5t-88.5 42.5t-63.5 81t-29 128h-106v-249h-71zM541 55q45 0 84 11t68 37t45.5 69.5
t16.5 108.5q0 67 -17.5 111t-47 70t-68.5 36.5t-83 10.5q-45 0 -83.5 -11t-67.5 -37t-45.5 -69.5t-16.5 -108.5q0 -67 17.5 -111t46.5 -70t68 -36.5t83 -10.5z" />
    <glyph glyph-name="uni0433.SRB" unicode="&#xf433;" horiz-adv-x="551" 
d="M78 0v564h420l-6 -67h-343v-497h-71z" />
    <glyph glyph-name="uni0434.SRB" unicode="&#xf434;" horiz-adv-x="727" 
d="M29 -172v241h49q24 36 36.5 61.5t19.5 55t11 68t9 100.5l20 210h438v-495h86v-241h-71v172h-526v-172h-72zM226 354q-5 -57 -8.5 -95.5t-10 -68.5t-19 -57.5t-33.5 -63.5h386v428h-302z" />
    <glyph glyph-name="uni043F.SRB" unicode="&#xf43f;" horiz-adv-x="677" 
d="M78 0v564h521v-564h-72v497h-378v-497h-71z" />
    <glyph glyph-name="uni0442.SRB" unicode="&#xf442;" horiz-adv-x="645" 
d="M291 0v497h-249v67h562l-8 -67h-233v-497h-72z" />
    </font>
</defs>
</svg>
